<?xml version="1.0" encoding="utf-8"?>
<!-- Generator: Adobe Illustrator 21.0.0, SVG Export Plug-In . SVG Version: 6.00 Build 0)  -->
<svg version="1.1" id="Capa_1" xmlns="http://www.w3.org/2000/svg" xmlns:xlink="http://www.w3.org/1999/xlink" x="0px" y="0px"
	 viewBox="0 0 1000 1000" style="enable-background:new 0 0 1000 1000;" xml:space="preserve">
<style type="text/css">
	.st0{fill:#F4AD7B;}
	.st1{fill:#FFFFFF;}
</style>
<path class="st0" d="M571.1,271.4c-6.1-8.1-12.7-16.1-19.2-23.7c-12.3-14.6-23.8-28.4-32.4-43.9c-24.9-45.1-18.8-84.2,21.1-134.9
	l20.3-26l-29.3,15.3c-34.3,17.8-62.6,45.8-79.8,78.5c-18.1,34.5-21.8,71.6-10.4,104.4c0.3,0.9,0.7,1.8,0.9,2.7L413,262.7
	c-60,38.5-94.9,106.9-88.7,174.2c4.1,44.3,29.5,71.2,62.2,101.7c32.2,30,44.6,55.4,38,77.7c-5.9,20.1-26.1,33.4-47.3,47.4
	c-11.4,7.6-23.3,15.3-33.1,24.5c-14.6,13.5-24.7,31-29.3,50.4c-13,55.6,0.5,146,71,163.3l18.7,4.6l-11.1-15.8
	c-28-39.2-5.4-107.3,33.3-146.3c12.7-13,28.3-24.3,43.1-35.3c6.9-5,14.1-10.1,20.8-15.5c67.6-53,113.5-123.3,129.5-197.8
	C636.8,416.9,619.1,335,571.1,271.4z M442.6,244c4.3,11.5,10.1,22.3,15.7,32.8c2.3,4.2,4.6,8.5,6.8,12.7
	c13,25.7,17.2,44.9,13.5,62.2c-4.1,18.5-22.4,38-45.4,36.9c-25.1-1.2-41.8-26.5-41-48.4c0.9-24.5,16.8-47.4,30.7-67.6L442.6,244z"/>
<path class="st1" d="M591,730.6c-7.6,14.5-14.3,29.3-15.3,45.1c-1.1,17.2,6.1,35.7,22.3,45c19.5,11.2,48.3,4.9,61.2-12.3
	c13-17.2,9.9-41.9-5.4-57.4c89.4,8.9,95.7,121.4,43.9,168.7c-31,28.4-77.2,41-121.5,39.1c-65.4-2.7-145.7-21.2-163.3-86.1
	c-12.2-44.9-7.8-66.9,25-102.6c54.1-58.9,173.6-133.4,185.9-214.8c21.9,23.4,14.6,57,7.4,86.9c-7.2,29.9-23.7,57-38.3,84.6
	C592.2,728.2,591.7,729.4,591,730.6z"/>
</svg>
