<?xml version="1.0" encoding="utf-8"?>
<!-- Generator: Adobe Illustrator 21.0.0, SVG Export Plug-In . SVG Version: 6.00 Build 0)  -->
<svg version="1.1" xmlns="http://www.w3.org/2000/svg" xmlns:xlink="http://www.w3.org/1999/xlink" x="0px" y="0px"
	 viewBox="0 0 1000 1000" style="enable-background:new 0 0 1000 1000;" xml:space="preserve">
<style type="text/css">
	.st0{fill:#F4AD7B;}
	.st1{fill:#FFFFFF;}
</style>
<g id="Capa_2">
</g>
<g id="Capa_1">
	<path class="st0" d="M510.9,227.8c-4.5-6-9.4-11.9-14.2-17.5c-9.1-10.8-17.6-21-24-32.5c-18.4-33.4-13.9-62.3,15.6-99.8l15-19.2
		l-21.7,11.3c-25.4,13.2-46.3,33.9-59,58.1c-13.4,25.5-16.1,53-7.7,77.2c0.2,0.7,0.5,1.3,0.7,2l-21.7,13.9
		c-44.4,28.5-70.2,79.1-65.6,128.9c3,32.8,21.8,52.7,46,75.2c23.8,22.2,33,41,28.1,57.5c-4.4,14.9-19.3,24.7-35,35.1
		c-8.4,5.6-17.2,11.3-24.5,18.1c-10.8,10-18.3,22.9-21.7,37.3c-9.6,41.1,0.4,108,52.5,120.8l13.8,3.4l-8.2-11.7
		c-20.7-29-4-79.4,24.6-108.2c9.4-9.6,20.9-18,31.9-26.1c5.1-3.7,10.4-7.5,15.4-11.5c50-39.2,84-91.2,95.8-146.3
		C559.5,335.4,546.4,274.8,510.9,227.8z M415.8,207.5c3.2,8.5,7.5,16.5,11.6,24.3c1.7,3.1,3.4,6.3,5,9.4c9.6,19,12.7,33.2,10,46
		c-3,13.7-16.6,28.1-33.6,27.3c-18.6-0.9-30.9-19.6-30.3-35.8c0.7-18.1,12.4-35.1,22.7-50L415.8,207.5z"/>
	<path class="st1" d="M525.6,567.5c-5.6,10.7-10.6,21.7-11.3,33.4c-0.8,12.7,4.5,26.4,16.5,33.3c14.4,8.3,35.7,3.6,45.3-9.1
		c9.6-12.7,7.3-31-4-42.5c66.1,6.6,70.8,89.8,32.5,124.8c-22.9,21-57.1,30.3-89.9,28.9c-48.4-2-107.8-15.7-120.8-63.7
		c-9-33.2-5.8-49.5,18.5-75.9c40-43.6,128.4-98.7,137.5-158.9c16.2,17.3,10.8,42.2,5.5,64.3c-5.3,22.1-17.5,42.2-28.3,62.6
		C526.5,565.7,526.1,566.6,525.6,567.5z"/>
	<g>
		<g>
			<path class="st0" d="M173,918c-0.9,0-1.6,0.4-2.4,0.6c-4,0.4-8,0.6-12.1,0.6c-1,0-5-0.1-5.9-0.1c-0.3,0-1.4-0.1-1.7-0.1h-0.3
				l-1,0.1c-0.7,0.1-4.2,0.3-5,0.3c-0.9,0.9-5,11-5.3,12.3c-0.1,2.3,0.6,5.6-1.7,7.2c-1,0.7-2.4,0.4-3.4,1.1h-2
				c-2.2,0-4.3-0.4-6.3-0.4c-1,0-2,0.7-2.9,0.7c-2.3,0-5.5-1-5.5-3.7c0-5.3,4.2-12.3,6-17.5c2.9-8,5-16.1,7.7-24.3
				c0.2-0.6,0.4-1.1,0.4-1.7l8.8-25c0.3-1.4,0.4-0.9,0.9-2.2c2.2-5.5,3.7-11.1,6-16.5c2.2-4.9,1.9-6.6,7.7-7.3
				c1.7-0.3,3.2-0.3,4.9-0.3c3.7,0,7,1,10.5,2.2c1.1,0.4,1.6,2.6,2.9,3c1.3,1.9,1.9,4,2.6,6l3,9.6c-0.3,1,0.9,1.9,0.9,2.9l-0.2,0.1
				l-0.4,0.6v0.3c0.3,0.9,1.6,5.3,2,6.3c0,0.2,0.2,0.3,0.2,0.4c0.3,1.4,0.4,3.2,1.1,4.5c3.9,7.9,5.6,16.4,8.2,24.7
				c0.6,2.2,2,4.6,2.7,6.6c1.7,4.6,3.2,9.2,4.7,13.6c0.3,1.3,1.3,2.9,1.3,4.2c0,0.3,0.1,0.9-0.3,1.1c0.9,0.4,2.3,4.6,2.3,5.6v0.2
				c-0.1,0.1-0.4,1.3-0.4,1.4c0.1,0.2,0.9,0.9,1.1,1c-1,0.9-0.9,1-2,1.9l-0.1,0.1c0,0.6,1.1,0.7,1.4,0.7l-3.3,0.9l-0.6,0.6
				c-0.1,0-2,0.3-2.9,0.4h-0.2c-2,0-4.2-0.3-6-0.3c-0.9,0-1.4,0.4-2.2,0.4c-1.4,0-3.9-0.2-5-1.2c-5-4.2-6-15.6-8-21.7H173V918z
				 M151.8,898.4c5.3,0,10.3-0.4,15.6-0.4c0.3,0,0.3-0.3,0.3-0.4c0-1.1-1-2.4-1.1-3.6l-2.7-7l-3.6-14.4c-1.3,0.9-2.7,7.9-3.3,9.9
				c-0.2,0.7-2.3,6.2-2.4,6.9l-0.3,1c-0.4,1.1-2.2,6.5-2.4,7.6v0.4H151.8z M154.2,860.5c0.3,0,0.3-0.6,0-0.6
				S153.9,860.5,154.2,860.5z M177.2,888.2c0.2,0.1,0.3,0.1,0.4,0C177.6,887.9,177.2,887.9,177.2,888.2z M192.3,934.3V934H192
				L192.3,934.3z"/>
			<path class="st0" d="M276.8,941.7c-0.2,0-0.9-0.1-1-0.1l-4.9-1.1c-1-0.3-1.6-1-2.4-1.6c-8.5-5.6-12.8-12.6-17.1-21.7
				c-0.4-1.6-1.3-2.9-1.6-4.4c-1.9-6.5-2.2-13.4-2.2-20.1c0-7.2,0.9-14.2,2.2-21.4c0.1-2,0.1-4,0.7-6c2.2-7.2,5-13.9,10.8-18.9
				c0.7-0.6,3.2-0.4,4.6-1.3c0.3-0.1,1.9-1.1,1.9-1.1l7-2.6h3.6c9.6,0,18.8,2.2,25.1,9.3c2.2-0.9,4.6,4.9,4.5,6.3l1.4,3.4v1
				c0,1.3-0.1,2.2-0.6,3.6c-0.6,0.3-2.7,5.9-2.4,6.9c-0.3,0-0.7-0.3-0.9-0.3c-0.1-0.1-0.4-0.3-0.6-0.3c-1,0-1.4,0.9-2,1.4h-0.3
				c0,0-0.1-0.3-0.1-0.4h-0.1c-1.2,0-2.7,1-4.3,1c-8.8,0-11.9-2.9-13.8-11.6c-0.7-3.6,0.1-3.9-4.2-3.9c-1.3,0-4.9,0-4.9,2.2
				c-0.1,0-0.3-0.1-0.3-0.1c-0.1,0-0.4-0.4-0.4-0.6c-1.4,0.7-3.6,10.3-3.6,11.5c-0.1,2.9,0.3,9.5-0.9,11.6c0.2,3.2-0.3,5.5-0.3,8.5
				c0,1.7,0.4,3.4,0.4,5.2c0,0.1,0,0.9-0.4,0.9v4.9c0,0.7,0.3,2.7,0.3,2.9l0.3,0.3c0.7-0.4,0.6-2.2,0.6-2.6c0-1.3-0.3-2.6-0.3-3.9
				c0-0.7,0.2-1.7,0.9-2.2v1c0,0.7-0.4,1-0.4,1.6c0,1,0.6,1.9,0.6,2.7v0.1c0,0.1-0.4,0.6-0.6,0.7l0.4,0.4v0.6c0,0.6-0.6,1.9-1.1,2.2
				c0,0.3-0.1,1.7-0.1,2.2c0,1,0.7,5.6,1.7,6.2V913c0-0.9-0.3-1.4-0.3-2.3c0-0.4,0-0.9,0.6-1c0,0.1,0.1,0.1,0.1,0.3l0.1,0.2
				c0.9,1.4,2.3,3.9,2.3,5.3c0,0.4-0.3,0.9-0.3,1.3c0,1.2,3.6,4.9,4.9,4.9c1.1,0,7.6-10.2,9.3-12.2c1.3-1.4,4.7-4.2,6.6-4.2
				c0,0.3,0,0.4-0.3,0.6h0.3c0.4,0,1.4-0.9,2-1c1.4-0.9,3.2-0.7,4.7-0.7c1.3,0,1.7,0.6,2.9,0.7h1.4c0.6,0.1,1.7,2.2,1.9,2.7
				c0.1,0.6,2,1.6,2.4,2.2c0.9,1.3,1.6,3,2.4,4.3c0.1,0.1,0.4,0.6,0.4,0.7c0,0.1-0.4,1.1-0.4,1.3c0,0.3,0.1,2.2,0,2.4
				c0,0.9-1.2,1.4-1.3,2.3c-0.4,1-1.7,6.8-2.7,6.8c-0.3,0-0.3-0.3-1-0.3c-1.3,0-1.6,2.3-2.2,3.2l-2.2,2.7c-3.2,3.4-4,3.2-8.8,5.2
				c-0.1,0-0.9,0.6-1,0.6s-0.7,0.6-0.9,0.6c-0.2,0-0.6-0.4-0.6-0.4c-0.4,0-3.4,1.1-3.9,1.4c-0.6,0.4,0,0.9-1,0.9
				c-0.4,0-0.7,0-0.9-0.6c-0.7,0.2-3.7,0.3-4.5,0.3h-0.6v0.3h3.9v0.3l-4.7,0.3c0,0-0.6-0.7-0.7-0.9c-0.3,0-1-0.3-1.1-0.3
				c-0.4,0-2.4,0.2-2.9,0.2C276.3,941.1,276.8,941.1,276.8,941.7z M262.6,894.6V893c-0.2,0-0.2,0.3-0.2,0.4
				C262.5,893.6,262.5,894.5,262.6,894.6z M274,928.1c0.9,1.1,2.4,1.1,4,1.1c1.4,0,3.6,0.3,5-0.6c-1.2-0.1-2.3-0.6-3.3-0.7
				c-1.7-0.7-4.7-0.7-5.2-1.3l-0.4,0.6c-1.1-0.9-2.2-2.6-3.2-3.9c0.4-0.7-1.3-1.4-0.9-2.3c-1-3.2-2.9-7-3.3-10.2
				c-0.4-2.3-0.4-6-0.4-8.3h-0.4c-0.4,0-0.3,0.7-0.6,0.7c-0.1,0-0.1-0.1-0.3-0.1c-0.3-3.2-0.7-6.7-1.6-9.9v0.7c0,3.9,1.3,7.5,1.3,11
				v0.4c-0.3-0.3-0.4-1.3-0.4-1.4c-0.3-1.3-1.1-6.9-1.4-8l-0.3-0.4l-0.2,0.1v0.1c0,3,0.2,6.6,1,9.6c-0.3,0.2-0.3,0.4-0.3,0.9
				c0,2,2.2,11.2,3.9,12.2V918c0,0,0.2-0.1,0.3-0.1c0,0.1,0.3,0.6,0.3,0.6c0,0.1-0.3,0.3-0.3,0.3l-0.1,0.2c0,0.6,1,0.6,0.6,1.3
				l1.6,2.2c0,0.2,0.1,0.4,0.1,0.6C270.2,923.6,273.2,927.2,274,928.1z M264.5,935.3h0.2c0-0.3-0.3-0.7-0.7-0.7
				C263.9,935,264.1,935.3,264.5,935.3z M265.1,896.8v-0.7c-0.1,0.1-0.3,0.3-0.3,0.4S265.1,896.8,265.1,896.8z M265.1,897.8
				C265.4,897.8,265.4,897.7,265.1,897.8C264.9,897.7,264.9,897.9,265.1,897.8z M265.5,901.5v-1.3c0-0.4,0-1.4-0.4-1.7v0.9
				C265.1,900.1,265.1,900.5,265.5,901.5z M269.5,915.5l1.1,1.1v-1.3c0.3,0,1,0.3,1-0.4c0-1-1-2.3-1.3-3.2
				c-0.9-3.3-1.1-6.8-1.7-10.1c0-0.3-0.2-2.3-0.2-2.7l-0.4-0.3c0.2-1.4,0.2-3.2-0.3-4.6v-0.1c0,0-0.1,0-0.1,0.1
				c-0.6,0.6-0.4,2-0.4,2.6c0,4.3,0.9,8.8,0.9,13.1h-0.3C267.8,911.6,268.1,914.3,269.5,915.5z M269.8,918.2c0.3,0,0.3-0.4,0-0.4
				C269.5,917.7,269.5,918.2,269.8,918.2z M271.5,920.8v-0.4c0-0.9-0.7-1.6-1.4-2.2v0.6C270.1,919.5,270.4,920.9,271.5,920.8z
				 M270.4,923.3c-0.3,0-0.3-0.4,0-0.4C270.7,922.9,270.7,923.3,270.4,923.3z M270.7,925.4c0.2,0,0.2-0.3,0-0.3
				C270.4,924.9,270.4,925.5,270.7,925.4z M271.1,915.2c-0.1,0-0.1-0.4,0-0.4C271.5,914.7,271.5,915.2,271.1,915.2z M271.5,905.8
				c-0.4,0-0.4-0.4,0-0.4C271.7,905.4,271.7,905.8,271.5,905.8z M271.5,909.4c-0.4,0-0.4-0.6,0-0.6
				C271.7,908.8,271.7,909.4,271.5,909.4z M271.8,907c0,0.2-0.2,1.2-0.2,1.4l-0.1,0.3V907H271.8z M272.8,867.9c-0.3,0-0.3-0.4,0-0.4
				C273.1,867.5,273.1,867.9,272.8,867.9z M274.8,926.4c0-0.7-1-0.7-1.6-0.7C273.2,926.5,274.2,926.4,274.8,926.4z M274.5,927.5
				l0.4,0.6h-0.1c-0.2,0-0.3-0.2-0.3-0.2s-0.1-0.1-0.1-0.3L274.5,927.5z M278.3,941.6c-0.3-0.1,2-0.1,1.7,0
				C279.7,941.7,278.6,941.7,278.3,941.6z M279.7,918.2c-0.3,0.2-0.3-0.3,0-0.3C279.8,917.9,279.8,918.2,279.7,918.2z M281,940.4
				c1.6,0,3.2,0,4.4-0.1c-0.4-0.7-0.6-0.9-1.1-0.9c-1,0-2.6,0.4-3.9,0.4l-0.2,0.4C280.3,940.6,281,940.4,281,940.4z M283,927.5
				c0,0.3,0.3,0.3,0.3,0C283.3,927.4,283,927.4,283,927.5z M285.4,929.5h0.3c0.3,0,0.6-0.1,0.6-0.4v-0.2
				C286,929.1,285.7,929.2,285.4,929.5z M287.2,929.1L287.2,929.1c0.3,0.1,0.9,0,0.9-0.5C287.7,928.7,287.2,928.7,287.2,929.1z
				 M287.3,921.1L287.3,921.1c0.6,0,0.9-0.8,0.9-1.2C287.7,920.2,287.3,920.5,287.3,921.1z M288,941c0.2,0,0.2-0.6,0-0.6
				C287.6,940.4,287.6,941,288,941z M288.2,911.1v0.2c0.1,0,0.1-0.2,0.3-0.2c0.9-0.7,1.7-1.6,1.9-2.4
				C289.5,908.7,288.2,910.1,288.2,911.1z M290,927.9c0.4,0,0.7-0.4,1-0.7h-0.4C290.3,927.2,290,927.5,290,927.9z M292.9,907h0.6
				v-0.4C293.2,906.6,292.9,906.7,292.9,907z M293.6,845c0.4,0,0.4-0.6,0-0.6C293.5,844.4,293.5,845,293.6,845z M302,871h0.3v-0.3
				L302,871z"/>
			<path class="st0" d="M321.6,915.9c-2.2-7.3-3-15.1-3-22.8c0-4.7,0.7-9.9,1.4-14.8c0.3-2.6,1.4-4.9,2.4-7.2
				c0.9-2.4,0.7-2.7,1.3-5.2c0-0.1,0.3-0.6,0.3-0.6c0.3-0.4,2.9-4.2,3.3-4.6l1.9-3.6c3.4-4.9,8-8,12.6-11.5c2.2-0.6,3.7-2,5.6-2.7
				h0.7c3-0.7,5.6-1.4,8.8-1.4c4.6,0,9,1.6,13.2,2.7c1.3,0.9,1.7,0.6,3.3,1.2c2.6,0.9,5,2.4,7.2,4c0,0,0.4,0.3,0.6,0.3
				c8.2,5,11.6,13.1,14.2,21.7l1.9,5.7c0.9,2.9,0.9,6.6,0.9,9.8v2.4c-0.1,0-0.6,0.6-0.6,0.7s0.6,0.4,0.6,0.6v0.3l-0.3,0.3v1
				c0,0.7,0.3,1,0.3,1.7c0,2.2-0.6,4.6-0.6,6.9c0,0.3,0.3,2.2,0.3,2.4v1c-0.9,3.6-1.2,7-2,10.8c-0.9,5.9-4.7,10.8-7.9,15.6
				c-0.1,0-0.6,1.3-0.9,1.7c-1,2.3-6.2,5-8.8,5.9c-0.4,0.3-5.2,1.7-5.7,2c0,0-0.4,0.1-0.6,0.1c-0.7,0.3-4.6,1-5.5,1.1
				c-0.1,0-1.7,0.3-2.2,0.3H364c-1.3,0-4.3-0.3-4.3-0.3c-2.7-0.1-6.3-0.7-9.2-1.3l-0.4-0.3C335.5,937,327.4,929.2,321.6,915.9z
				 M339.4,923.5v-0.3c0,0-1.7-2.4-2.4-3.4c-0.1-0.3-0.3-0.4-0.7-0.4C336.2,920.6,338.5,922.6,339.4,923.5z M339.6,882.6h0.3v-0.2
				h-0.3V882.6z M341.8,926.2h0.3l-1.9-2.2c0-0.1-0.3-0.3-0.3-0.3h-0.3C339.8,924.2,341.1,926.2,341.8,926.2z M339.9,881.3h0.3
				l0.1-1.1h-0.4V881.3z M340.4,898.8h0.4v-0.3h-0.4V898.8z M340.6,886.9c0.7,0,0.7-0.9,0.7-1.3
				C340.8,885.6,340.6,886.3,340.6,886.9z M340.8,877.4c0,0.3,0.1,0.3,0.3,0C341.1,877.3,340.6,877.3,340.8,877.4z M340.8,887.8h0.3
				v-0.2h-0.3V887.8z M341.2,883.4h0.3v-0.1L341.2,883.4L341.2,883.4z M341.8,859.3l0.3-0.1h-0.6L341.8,859.3z M342.4,896.6
				c0.3-0.1,0.4-0.3,0.4-0.6c-0.3,0-0.6,0-0.7,0.3L342.4,896.6z M357.7,922.2c1.3,0.4,2.7,0.4,4,0.4c4,0,6.2-4.2,9.5-6.3
				c0.1-0.4,1.1-2.7,1.3-3.3c0-0.1,0.6-0.9,0.6-1l0.3-0.3c0,0,0.4,0.3,0.6,0.3c1.1,0,2.7-13.9,2.7-16.1c0-4.6-0.6-9.8-0.9-14.5
				c-0.2-2.6-2.4-7.7-3.4-9.8c-0.4-0.7-3.3-6.2-3.6-6.9c-0.9-1.4-2.6-4.3-4.7-4.3v0.7c-1.2-0.2-0.7-1.3-2.7-1.3h-0.6
				c0.1,0.4,1.1,0.6,1.4,0.6v0.3c-1.4,0-1.6-1.1-2.7-1.1h-0.2l0.4,0.6v0.3c-3.9,0.6-4.2,1.6-7.5,3c-0.2-0.1-0.3-0.3-0.3-0.4
				c-0.3,2.6-4.5,3.3-5.3,5.6c-0.6,2-1.4,4.6-1.9,6.6c0,0.4-0.4,3.2-0.6,3.9c-0.2,0.9-0.4,5.3-0.4,6.3c-0.4,0.6-0.6,2.2-0.6,2.7
				l0.3,0.4c0,0.2-0.3,0.3-0.3,0.3c0,0.6-0.1,2.4-0.1,3c0,2.2,0.7,4.2,0.7,6.3v0.3c-0.3-0.4-0.7-0.7-1.1-0.7c0,0.7,0.3,0.9,0.3,1.4
				v0.4l-0.3,0.6l0.6,0.6v0.3c0,0.7-0.3,1.1-0.3,1.9c0,1.3,0.9,4.6,1.3,5.5c0,0,0.1,0,0.1,0.1l-0.1,0.2l-0.3,0.4v0.3
				c0,1.4,2,2.7,2,4.3v0.1l-0.3,0.3c0.4-0.3,0.9,0.2,0.9,0.6c0.4,0.6,2.6,2.6,3,3c0.6,0.6,1.4,0.6,1.9,1.3L357.7,922.2z
				 M347.8,866.5c0.4,0,2.9-2.3,3.3-2.9H351C350.1,863.6,347.8,865.5,347.8,866.5z M353,862.6l0.7-0.6h-0.3c-0.2,0-0.6,0.3-0.6,0.3
				L353,862.6z M358,922.2c-0.3,0-0.3-0.6,0-0.6C358.2,921.6,358.2,922.2,358,922.2z M373.7,911.1
				C373.4,911.1,373.4,910.8,373.7,911.1C373.8,911,373.8,911.1,373.7,911.1z M378.2,927.1c0.2,0,0.3,0.3,0.4,0.3h0.2
				c0.7,0,1.4-1.7,1.4-2.3C379.6,925.1,378.2,926.7,378.2,927.1L378.2,927.1z M380.5,924.3c0,0.2,0.1,0.2,0.1,0
				C380.8,924.2,380.5,924.2,380.5,924.3z M381.4,922.9h0.1v-0.3h-0.1V922.9z"/>
			<path class="st0" d="M521.9,940.4c-6.5-1-6.2-5-6.9-10.3c-0.2-1-1.3-8.8-1.3-9.8C513,914.4,513,908,513,902
				c0-2.4-0.2-5.2,0.4-7.6c-0.2-3.3-0.2-18.4,0-21.7c0-1,0.1-12,0.1-12.9v-2.4c0.1-0.9,0.6-7.2,0.6-8c0-1.3,0-3.7,0.7-4.9
				c0.2,0,0.6-0.3,0.7-0.3c1.3-0.6,0.9-1,2.7-1.3c6.7-1.4,13.5-1.4,20.4-2.2v0.6h-1.1v0.3h25.3c1.6,0,3.7,0.7,5.3,1.3l0.1,0.1
				c0,0,0.1,0.1,0.1,0.3c2.9,4.3,4.6,8.3,4.6,13.6c0,1-0.1,0.9-0.7,2c-1.1,2.6-2.9,3.7-5.5,4.5c-0.7,0.1-0.6-0.3-1,0.4h-5
				c-1.4,1-15.9,1.6-18.1,1.6c-1.3,0-2.3-0.4-3.4-0.4c-1.3,0-2.6,0.3-2.6,1.7c0,3.4,0.6,9.9,0.6,13.3c3.2,0,6.5-0.3,9.6-0.3
				c2.2,0,11.1-0.1,13.2,0.3c1,0.3,2.6,2.2,3.2,2.9c2.4,2.7,3.7,6.9,3.7,10.5c0,0.9-1.4,5.2-1.4,5.3l-1.4,2.6
				c-0.9,1.1-19.1,1.1-21,1.1c-1.3,0.2-3.9-0.3-5.5,0.4c-0.4,0-0.4,0.1-0.4,0.4c0,3.4,0.3,9.6,0.6,13.1c0,0.7,0.6,2.4,0.6,2.4
				l0.3,0.3c0.3,0,1.3-0.3,1.6-0.3h0.4c0.3,0,0.4,0,0.7,0.6c1.6-0.4,3.6-0.6,5-0.6h0.3c1.4,0,15.1,0.3,16.5,0.3c5,0.9,9.3,3.6,9.3,9
				c0,1.6-1,2.9-1,4.2c0,0.9,0.3,1.7,0.3,2.4c0,2.2-1.6,2.7-2.9,4.2c-0.7,0.9-0.7,1.9-2.4,1.9h-7.6c-0.9,0-0.4-0.9-1.2-0.9
				c-4.4,0-15.9,1.3-20.2,1.3c-0.7,0-1.1-0.1-1.9-0.4l0.3-0.4c-0.3,0-1.2-0.2-1.3-0.2L521.9,940.4z M537.2,940.4l0.4-0.1H537
				L537.2,940.4z M539.6,841.1c-0.3,0-0.3-0.6,0-0.6C539.7,840.5,539.7,841.1,539.6,841.1z M547.2,880.7c0.1,0,8.5,0.1,8.8,0.1
				l3.4,0.9c0.4,0,1.9,0.9,2.6,0.9l0.3-0.2c-0.3-1.9-4.3-2.4-5.6-2.4c-1,0-8.6,0-9.6,0.3C547,880.4,547.2,880.6,547.2,880.7z
				 M556.3,918.2c0-0.1,0.4-0.1,0.3,0C556.6,918.5,556.5,918.5,556.3,918.2z M556.6,882c0.1,0.2,0.3,0.2,0.4,0
				C557.1,881.7,556.6,881.7,556.6,882z M563.5,918.2c0-0.1,0.4-0.1,0.3,0C563.8,918.5,563.7,918.5,563.5,918.2z M570.8,930.1
				c0.3,0,0.9-0.3,1-0.6v-1.1c0-1.9-0.6-1.7-1.6-2.7c-0.6-0.4-1-1.7-1.9-1.7c0,2,2.6,2.7,2.6,4.9v0.1c0,0-0.1,0.3-0.3,0.3
				c0-0.1-0.3-0.7-0.3-0.9c-0.1-0.3-0.6-1.3-0.6-1.3h-0.3C569.6,927.9,569.8,930.1,570.8,930.1z"/>
			<path class="st0" d="M612.3,911.6c-1.6-2.7-4.9-8.8-4.9-8.8h-0.3c-0.2,0.4-0.3,2.7-0.3,3.2v0.3c0,2.7,0.6,6.3,0.7,8.6
				c0,1-0.1,7.6,0,8.3c0,3.2,0.3,6.3,0.6,9.3c0,1.7,0.6,3,0.6,4.6c0,4.5-7.8,3.6-10.8,3.6c-5.3,0-6.9,0.6-9.9-4
				c-0.4-0.7-0.9-1.7-0.9-2.7l-1-11v-1.2l-1.7-17.2c0.3-9.3-0.9-18.8-0.9-28c0-6.6,0.2-13.3,0.9-19.8c0-0.4,0.6-4.3,0.6-4.7
				c0-0.7,0.2-4.3,0.2-5c0-0.2,0.1-0.6,0.3-0.6v-0.2c0-0.6-0.3-0.9-0.3-1.3v-0.6l2-0.6h0.3c7.9-0.7,15.9-1.7,23.5-1.7
				c3,0,5.9,0.4,8.8,0.3l7.6,1.4c3.4,0.3,6.7,3.3,12.1,8.2l3.9,5.3c3.3,4.6,4.3,12.2,4.3,17.9v3.6c-0.6,1.4-0.7,2.7-1.4,4.2
				c-0.6,1.7-1.3,2.2-2,3.2c0,0-0.1,0.3-0.3,0.3c-1,0.7-0.9,1.9-1.4,2.9c-3,3.7-7,5.9-11.3,7.9l-0.2,0.2l0.2,0.1
				c1.4,2.2,3,4.6,4.4,7c0.4,0.9,2,4.3,2.3,5.2c1.9,4.3,4.2,8.8,6.6,12.8c1,1.3,2.3,2.6,3.2,3.9c0.6,1,0.9,2.3,1.6,3.3l1.3,1.1
				c0.9,0.6,3.3,6.7,3.3,8.2c0,0.9-8,2-8.3,2c-2.6,0-15.8-1.3-16.8-2.3c-0.2,0-0.3-1-0.3-1.1l-1.3-1.3c-2.7-3.3-4-5.5-6.2-9.3
				c0-0.1-0.4-1.1-0.4-1.3c-0.3-0.6-1.3-2.6-1.3-2.7c-0.9-1.3-5.2-8.2-6-9.5C613,912.7,612.7,912.1,612.3,911.6z M613.4,879.3
				c0.7,0,0.9,1.3,1.1,1.3c0.3,0,1-0.3,1.1-0.6c-0.3-0.1-0.9-0.4-0.9-0.7v-0.1c0.3-0.1,1.4-0.3,1.7-0.3h0.1c0,0,0.2,0.2,0.2,0.3
				c-0.2,0-0.4,0.4-0.6,0.6h0.7c0.3,0,1.4-0.1,1.4-0.7v-0.2c0-0.1-0.3-0.3-0.3-0.3s0.1-0.2,0.3-0.2c0.3,0,0.4,0.7,1,0.7v-0.7
				c3.2,0,9.2-1.4,9.2-5.7c0-3.6-4.2-7.9-7.7-7.9h-4c-0.2,0-1-0.3-1.2-0.3c-0.1,0-1.3,0.3-1.4,0.3c0,0-0.7-0.3-0.9-0.3h-0.3
				c-0.1,0-1.4,0.3-1.7,0.3h-0.3c0-0.2-0.1-0.7-0.3-0.9h-0.1c0,0-0.2,0.3-0.3,0.3s-1.4,0.3-1.7,0.3c-1.3,0.1-4-0.4-5,0.4v2.2l1,6.6
				c0,0.1,0.1,6.3,0.7,6.6c0.3-0.1,1.9-0.3,2.2-0.3h0.2C609.5,881.3,611.5,879.6,613.4,879.3z M606.5,890.2c0.3-0.3,0.6-0.4,0.6-0.7
				c0,0-0.9,0-0.9,0.3C606.2,889.8,606.4,890,606.5,890.2z M608.2,889.8c0.4,0,0.6-0.3,0.7-0.7C608.5,889,608.2,889.3,608.2,889.8z
				 M611.4,880.7h0.3c0.1,0,0.6-0.1,0.6-0.1c-0.2-0.2-0.7-0.3-0.9-0.3L611.4,880.7L611.4,880.7z M611.7,863.9c0.1,0.1,0.6,0.1,0.6,0
				C612.4,863.8,611.7,863.8,611.7,863.9z M613.7,880.6l0.1-0.3h-0.4L613.7,880.6z M618.6,856.7c0-0.4-1.1-0.6-1.6-0.7h-3.3v0.3
				c0,0,0.9,0.1,1.4,0.1c0.2,0,0.7-0.1,0.9-0.1C616.6,856.3,617.7,856.7,618.6,856.7z M616.3,863.9v-0.3h-0.6
				C615.9,863.9,616,863.9,616.3,863.9z M616.9,863.9L616.9,863.9c0.2,0,0.8-0.1,1.2-0.3h-0.4C617.6,863.6,616.9,863.5,616.9,863.9z
				 M621.2,857.3V857c0-0.1-0.7-0.3-1-0.3H620c-0.1,0-0.3,0.1-0.3,0.3C620.2,857.2,620.6,857.3,621.2,857.3z M623.5,877.4
				c-0.2,0-0.2-0.4,0-0.4S623.7,877.4,623.5,877.4z M632.8,866.6L632.8,866.6c0.1-1.1-0.5-2-1.2-2.7v0.3L632.8,866.6z M632.8,855.5
				c0.1,0,0.1-0.3,0-0.3S632.6,855.5,632.8,855.5z M632.8,869.2c0.1-0.1,0.1-0.4,0-0.4C632.6,868.7,632.6,869.2,632.8,869.2z
				 M633.8,856.7c0.3,0,0.3-0.4,0-0.4S633.5,856.7,633.8,856.7z M633.8,873c0.1,0,0.1-0.3,0-0.3S633.7,873,633.8,873z M638.1,883.9
				c0.2,0,0.2-0.4,0-0.6C638,883.3,638,884,638.1,883.9z M638.8,881.9h0.6v-0.4C639.1,881.4,638.8,881.6,638.8,881.9z"/>
			<path class="st0" d="M734.4,939.7c-3.9,0-6-0.3-6.9-4.3c-0.2-8.3-1.9-16.1-1.9-24.4v-1.6c0-0.1,0.3-0.4,0.3-0.6s-0.4-0.7-0.6-0.7
				c0-0.4-0.3-2.6-0.3-3v-0.6h0.6v-0.7c0,0-0.1,0.1-0.3,0.1l-0.4-0.4v-8.3c-2.2-2-3.3-4.2-4.7-6.9c-1.7-2.9-4-5.3-5.7-8.3
				c-2.9-5-4.9-10.8-7.3-15.8c-0.6-0.9-3.3-5-3.2-5.6c-0.9-2-1.7-4.6-2.9-6.5c-0.7-1.4-3.7-5.3-3.7-6.6c0-2.2,2.3-1.9,3.7-2.3
				c1.1-0.1,2.3-0.7,3.6-0.7h1.6c0.9,0,7.2,0.3,7.9,0.3c4.2,0.1,9.9,2.9,10.1,7.6c2.3,4.9,4.6,9.6,7.7,13.9l3.4,8.8l0.3-0.3l1.4-4.3
				l6.9-15.6c1.3-1.6,2.3-4.2,3.4-6c3.3-5.2,6-4.2,12-6h5.5c1.6,1.3,3.4,0.3,4.2,2.3c0,0.1,0.1,0.1,0.1,0.1c0.4,0,1.6-0.1,2-0.1h0.2
				c1.4,0,1.6,0.9,1.6,2.2c0,4.5-2.4,8.5-3.9,12.5c-1.6,4.5-3.7,8.9-5.7,13.2c-0.7,1.3-2.6,3.3-2.7,4.9c-2.3,3.3-4.4,7.2-6.5,10.6
				c0,0.1-0.1,0.1-0.1,0.3c-0.7,0.4-0.7,1.3-1,2c-1.4,2-4.2,4.4-5,7c-0.9,3.2-1,6.2-1.9,9.5c-0.4,0.7-0.3,3-0.9,3.2v2.6
				c0,1.9-0.1,2.6,0.3,4.2c0,0,0.3,0.6,0.1,0.6c0,0-0.4,0.4-0.4,0.6v0.7c0,0.9,1.6,10.2,1.7,10.2h0.3c0-0.1,0.3-0.1,0.4-0.3
				c-0.3,1.2-0.6,0.4-0.6,1.9h0.3v2.4l-0.6,0.4c0,0-0.1,2.7-0.3,4v0.9c0,0.2,0.6,1.2,0.7,1.3v0.3c-0.1,0.2-0.4,0.4-0.4,0.6
				c0,0.6,0.7,0.9,1.3,0.9c0,1-1.9,0.9-2.4,1.6c0.4,0.3,0.9,0.4,0.9,0.9c-1.6,0-3.3-0.7-4.6-0.9c-2.6-0.3-5.5,0.4-7.9-0.9
				C734.5,940,734.4,940,734.4,939.7z M725.6,906.7h0.3v-0.3h-0.3V906.7z M725.6,907.7h0.3v-0.2h-0.3V907.7z M733.7,933l0.1-0.3
				l-0.1-0.3l-0.4,0.3L733.7,933z M734.1,932.1c0,0.1,0.3,0.1,0.3,0C734.5,932,734.1,932,734.1,932.1z M737,937.6
				c0.1,0,0.7,0,0.7-0.4V937l-2-0.7c0-0.4-0.4-1.4-0.9-1.4h-0.1l-0.6,0.9v0.3C735,937,735.5,937.6,737,937.6z M737,876.3
				c0-0.6-0.3-0.9-0.7-0.9C736.3,876,736.5,876.3,737,876.3z M738.8,920.2L738.8,920.2c0.4-0.2,0.7-0.5,0.7-0.5
				c0.1-1.3-0.6-3-0.6-4.3v-0.2c0.1,0,0.3-0.4,0.3-0.4c0-0.3-0.3-1.3-0.3-1.4V911c0-0.9-0.3-2.9-0.3-2.9l-0.1-0.4l-0.3,0.4v10.3
				l0.4,0.3c-0.1,0.3-0.1,0.4-0.1,0.9C738.5,919.8,738.5,920.2,738.8,920.2z M738.7,921.8c0.2,0,0.3-0.3,0.3-0.3s0.1,0,0.1-0.2
				c0-0.3-0.6-0.4-0.7-0.4C738.4,921.2,738.4,921.6,738.7,921.8z M738.7,936.5c0.2,0,0.3-0.3,0.3-0.3c0-0.3-0.3-0.7-0.6-0.7
				C738.4,935.8,738.4,936.4,738.7,936.5z M739.3,937.6l0.3-0.1l-0.3-0.4l-0.3,0.4L739.3,937.6z M741,933.8L741,933.8l-0.3-0.5
				l-0.3,0.3C740.4,933.8,740.7,933.8,741,933.8z M740.7,936.3c0,0.1,0.3,0.1,0.3,0C741,936,740.6,936,740.7,936.3z M741.6,937.8
				c0.1,0,0.3,0,0.4-0.3c0,0-0.4-0.4-0.4-0.6h-0.4c0,0.1-0.1,0.3-0.1,0.4v0.1C741,937.7,741.1,937.8,741.6,937.8z M741.6,932.7
				c0.1,0,0.1-0.2,0-0.3C741.3,932.4,741.3,932.7,741.6,932.7z M742.4,933.8C742.5,933.8,742.5,933.7,742.4,933.8l0.4-0.3l-0.3-0.3
				h-0.3l-0.3,0.3L742.4,933.8z M746.1,933v-0.6c-0.3,0-0.4,0.1-0.6,0.3C745.7,932.8,745.9,933,746.1,933z M745.7,918.2
				c-0.1,0-0.1-0.6,0-0.6C746.1,917.6,746.1,918.2,745.7,918.2z M746.1,908.8c-0.3,0.1-0.3-0.3,0-0.3
				C746.3,908.6,746.3,908.8,746.1,908.8z M747.3,911.7v0.4l-0.4,0.9l-0.3-0.3v-0.2C746.7,912.3,747.2,911.7,747.3,911.7z
				 M747.3,916.6c-0.4,0-0.4-0.6,0-0.6C747.4,916,747.4,916.6,747.3,916.6z M747.3,917.5c-0.4,0-0.4-0.7,0-0.7
				C747.4,916.7,747.4,917.5,747.3,917.5z M747.3,911C747,911.1,747,910.9,747.3,911C747.4,910.9,747.4,911,747.3,911z M747.3,914.2
				c-0.3,0-0.3-1,0-0.9C747.4,913.4,747.4,914,747.3,914.2z M747.4,906.4v0.6c-0.2,0-0.3-0.3-0.3-0.6H747.4z M747.4,909.7v-2
				C747.6,908.1,747.6,909.4,747.4,909.7z M747.4,925.8v-0.3C747.6,925.6,747.6,925.8,747.4,925.8z M747.7,919.3
				c-0.1,0-0.1-0.3,0-0.3S747.9,919.2,747.7,919.3z M747.7,934.4c-0.1,0-0.1-1,0-0.9C747.9,933.5,747.9,934.3,747.7,934.4z
				 M748,935.4c0.3,0.6,1,1.1,1,1.7c-0.9,0-1-0.7-1-1.3V935.4z M765.1,849.1c0.6,0,0.9-0.4,0.9-0.9c0,0,0-0.1-0.1-0.1
				C765.2,848.1,765.1,848.7,765.1,849.1z"/>
			<path class="st0" d="M815.1,918c-0.9,0-1.6,0.4-2.4,0.6c-4,0.4-8,0.6-12.1,0.6c-1,0-5-0.1-5.9-0.1c-0.3,0-1.4-0.1-1.7-0.1h-0.3
				l-1,0.1c-0.7,0.1-4.2,0.3-5,0.3c-0.9,0.9-5,11-5.3,12.3c-0.1,2.3,0.6,5.6-1.7,7.2c-1,0.7-2.4,0.4-3.4,1.1h-2
				c-2.2,0-4.3-0.4-6.3-0.4c-1,0-2,0.7-2.9,0.7c-2.3,0-5.5-1-5.5-3.7c0-5.3,4.2-12.3,6-17.5c2.9-8,5-16.1,7.7-24.3
				c0.2-0.6,0.4-1.1,0.4-1.7l8.8-25c0.3-1.4,0.4-0.9,0.9-2.2c2.2-5.5,3.7-11.1,6-16.5c2.2-4.9,1.9-6.6,7.7-7.3
				c1.7-0.3,3.2-0.3,4.9-0.3c3.7,0,7,1,10.5,2.2c1.1,0.4,1.6,2.6,2.9,3c1.3,1.9,1.9,4,2.6,6l3,9.6c-0.3,1,0.9,1.9,0.9,2.9l-0.2,0.1
				l-0.4,0.6v0.3c0.3,0.9,1.6,5.3,2,6.3c0,0.2,0.2,0.3,0.2,0.4c0.3,1.4,0.4,3.2,1.1,4.5c3.9,7.9,5.6,16.4,8.2,24.7
				c0.6,2.2,2,4.6,2.7,6.6c1.7,4.6,3.2,9.2,4.7,13.6c0.3,1.3,1.3,2.9,1.3,4.2c0,0.3,0.1,0.9-0.3,1.1c0.9,0.4,2.3,4.6,2.3,5.6v0.2
				c-0.1,0.1-0.4,1.3-0.4,1.4c0.1,0.2,0.9,0.9,1.1,1c-1,0.9-0.9,1-2,1.9l-0.1,0.1c0,0.6,1.1,0.7,1.4,0.7l-3.3,0.9l-0.6,0.6
				c-0.1,0-2,0.3-2.9,0.4h-0.2c-2,0-4.2-0.3-6-0.3c-0.9,0-1.4,0.4-2.2,0.4c-1.4,0-3.9-0.2-5-1.2c-5-4.2-6-15.6-8-21.7h-0.2V918z
				 M793.9,898.4c5.3,0,10.3-0.4,15.6-0.4c0.3,0,0.3-0.3,0.3-0.4c0-1.1-1-2.4-1.1-3.6l-2.7-7l-3.6-14.4c-1.3,0.9-2.7,7.9-3.3,9.9
				c-0.2,0.7-2.3,6.2-2.4,6.9l-0.3,1c-0.4,1.1-2.2,6.5-2.4,7.6L793.9,898.4L793.9,898.4z M796.3,860.5c0.3,0,0.3-0.6,0-0.6
				S796,860.5,796.3,860.5z M819.3,888.2c0.2,0.1,0.3,0.1,0.4,0C819.7,887.9,819.3,887.9,819.3,888.2z M834.4,934.3V934h-0.3
				L834.4,934.3z"/>
			<path class="st0" d="M853.6,895.6c0-0.6-0.1-7.9-0.3-10.3c-0.3-10.5,0.3-21,0-31.4v-0.1c-0.1,0-0.4-0.4-0.4-0.6
				c0,0,0.3-0.1,0.4-0.1l-0.3-6.2c0.9-0.7-0.2-3,1.1-3c0.1,0,0.1,0.3,0.6,0.3c2.3,0,4.6-0.3,6.9-0.3c4,0,6.6,0.7,10,2.4
				c1.4,0.7,2.4,0.6,2.6,2.4c0,1.4-0.4,2.9-0.4,4.3l-0.3,9.3c-0.1,3.4-0.9,6.3-1,9.6c-0.1,4-0.1,7.9-0.1,11.9
				c0,4.2-0.7,8.3-0.9,12.6c-0.6,1-0.7,2.4-0.4,3.7l-1.6,12.3c0.3,0.9,0,0.7-0.1,1.7c0,0.6-0.3,4.4-0.3,4.9c0,0.2,0,0.3,0,0.4
				c-0.3,2.7-0.4,4.9-4.2,4.9c-2.2,0-3.9-0.4-5.7-1.4c-5.2-3-3.6-6.6-4.7-11.6C854.5,909.1,853.8,898.1,853.6,895.6z M857.2,930.2
				c0.1,0,0.3-0.4,0.3-0.6c0-0.4-0.6-1-0.6-1.6v-0.3c0.9-0.3,4.6-0.9,5.5-1h1.9c5.3,0,6.5,2,6.6,7c0.1,1.4-0.7,7-2.9,7
				c-0.3,0-0.7,0-1.1,0c-2.6,0-4.2-0.4-6.5-1.4c-2.9-1.3-2.9-2.7-3-5.5c0-0.3,0-0.7,0-1C857.4,932.7,857.4,930.7,857.2,930.2z
				 M859.5,848.4h0.2c0,0-0.2-0.2-0.2-0.3h-0.3C859.2,848.3,859.5,848.4,859.5,848.4z M860.4,930.2c0.3,0,0.3-0.6,0-0.6
				C860.2,929.7,860.2,930.2,860.4,930.2z"/>
			<path class="st0" d="M111.9,889.1c0,0.6,0.1,7.9,0.3,10.3c0.3,10.5-0.3,21,0,31.4v0.1c0.1,0,0.4,0.4,0.4,0.6c0,0-0.3,0.1-0.4,0.1
				l0.3,6.2c-0.9,0.7,0.2,3-1.1,3c-0.1,0-0.1-0.3-0.6-0.3c-2.3,0-4.6,0.3-6.9,0.3c-4,0-6.6-0.7-10-2.4c-1.4-0.7-2.4-0.6-2.6-2.4
				c0-1.4,0.4-2.9,0.4-4.3l0.3-9.3c0.1-3.4,0.9-6.3,1-9.6c0.1-4,0.1-7.9,0.1-11.9c0-4.2,0.7-8.3,0.9-12.6c0.6-1,0.7-2.4,0.4-3.7
				l1.6-12.3c-0.3-0.9,0-0.7,0.1-1.7c0-0.6,0.3-4.4,0.3-4.9c0-0.2,0-0.3,0-0.4c0.3-2.7,0.4-4.9,4.2-4.9c2.2,0,3.9,0.4,5.7,1.4
				c5.2,3,3.6,6.6,4.7,11.6C111.1,875.6,111.8,886.6,111.9,889.1z M108.3,854.5c-0.1,0-0.3,0.4-0.3,0.6c0,0.4,0.6,1,0.6,1.6v0.3
				c-0.9,0.3-4.6,0.9-5.5,1h-1.9c-5.3,0-6.5-2-6.6-7c-0.1-1.4,0.7-7,2.9-7c0.3,0,0.7,0,1.1,0c2.6,0,4.2,0.4,6.5,1.4
				c2.9,1.3,2.9,2.7,3,5.5c0,0.3,0,0.7,0,1C108.2,852,108.2,854,108.3,854.5z M106,936.3h-0.2c0,0,0.2,0.2,0.2,0.3h0.3
				C106.3,936.4,106,936.3,106,936.3z M105.2,854.5c-0.3,0-0.3,0.6,0,0.6C105.3,855,105.3,854.5,105.2,854.5z"/>
		</g>
		<path class="st0" d="M424.6,940.6c5.8-0.6,10-6,10-11.8l0.8-41l11.3-0.1l-0.8,41c0,5.8,4.1,11,9.9,11.5
			c6.6,0.6,12.2-4.7,12.3-11.2l0.8-41.6l11.3-0.1l-0.8,41c0,5.8,4.1,11,9.9,11.5c6.6,0.6,12.2-4.7,12.3-11.2l0.8-41.6l0.1-21.3
			c0-13.1-14.2-23.5-27.3-23.3h-2.9v-69.2l-28.4,0.2v69.2H441c-13.1,0.1-27.4,11-27.5,24.1l-0.9,62.9
			C412.4,936.2,417.9,941.3,424.6,940.6z"/>
	</g>
</g>
</svg>
