<?xml version="1.0" encoding="utf-8"?>
<!-- Generator: Adobe Illustrator 21.0.0, SVG Export Plug-In . SVG Version: 6.00 Build 0)  -->
<svg version="1.1" id="Capa_1" xmlns="http://www.w3.org/2000/svg" xmlns:xlink="http://www.w3.org/1999/xlink" x="0px" y="0px"
	 viewBox="0 0 200 200" style="enable-background:new 0 0 200 200;" xml:space="preserve">
<g>
	<g>
		<polygon points="164.1,135 56.1,135 41.4,51.7 23.9,51.7 23.9,48.6 44,48.6 58.7,131.8 161.4,131.8 172.3,71.3 70.5,71.3 
			70.5,68.2 176.1,68.2 		"/>
	</g>
	<g>
		<rect x="81.9" y="110.6" width="84.6" height="3.1"/>
	</g>
	<g>
		<path d="M142.5,161.7c-5.1,0-9.3-4.6-9.3-10.1s4.2-10.1,9.3-10.1s9.3,4.6,9.3,10.1S147.6,161.7,142.5,161.7z M142.5,144.5
			c-3.4,0-6.2,3.1-6.2,7s2.8,7,6.2,7c3.4,0,6.2-3.1,6.2-7S145.9,144.5,142.5,144.5z"/>
	</g>
	<g>
		<path d="M70.6,161.7c-5.1,0-9.3-4.6-9.3-10.1s4.2-10.1,9.3-10.1c5.1,0,9.3,4.6,9.3,10.1S75.8,161.7,70.6,161.7z M70.6,144.5
			c-3.4,0-6.2,3.1-6.2,7s2.8,7,6.2,7s6.2-3.1,6.2-7S74,144.5,70.6,144.5z"/>
	</g>
	<g>
		<rect x="49.6" y="87.3" width="36.9" height="3.1"/>
	</g>
</g>
</svg>
