<?xml version="1.0" encoding="utf-8"?>
<!-- Generator: Adobe Illustrator 21.0.0, SVG Export Plug-In . SVG Version: 6.00 Build 0)  -->
<svg version="1.1" id="Capa_1" xmlns="http://www.w3.org/2000/svg" xmlns:xlink="http://www.w3.org/1999/xlink" x="0px" y="0px"
	 viewBox="0 0 200 200" style="enable-background:new 0 0 200 200;" xml:space="preserve">
<g>
	<g>
		<path d="M159.2,161.5H58.8c-2.7-0.1-8-2.2-8.9-9.1L50.1,45c0.2-3.5,2.6-10,9.6-9.8l68.8,0l22.3,23l-1.7,1.7l-21.6-22.3l-67.8,0
			c-0.1,0-0.1,0-0.2,0c-6.4,0-7,7.2-7,7.5l-0.3,107.1c0.9,6.5,6.4,6.8,6.6,6.9l97.9,0V68.3h-21.5c-7-0.9-9-6.3-9.1-9V46.4h2.4v12.8
			c0,0.2,0.4,5.8,6.9,6.7l23.7,0V161.5z"/>
	</g>
	<g>
		<path d="M82.9,143.5h-8.8c-2.9,0-5.2-2.3-5.2-5.2v-8.8c0-2.9,2.3-5.2,5.2-5.2h8.8c2.9,0,5.2,2.3,5.2,5.2v8.8
			C88.1,141.2,85.8,143.5,82.9,143.5z M74.1,126.8c-1.5,0-2.8,1.3-2.8,2.8v8.8c0,1.5,1.3,2.8,2.8,2.8h8.8c1.5,0,2.8-1.3,2.8-2.8
			v-8.8c0-1.5-1.3-2.8-2.8-2.8H74.1z"/>
	</g>
	<g>
		<path d="M82.9,91h-8.8c-2.9,0-5.2-2.3-5.2-5.2v-8.8c0-2.9,2.3-5.2,5.2-5.2h8.8c2.9,0,5.2,2.3,5.2,5.2v8.8
			C88.1,88.7,85.8,91,82.9,91z M74.1,74.3c-1.5,0-2.8,1.3-2.8,2.8v8.8c0,1.5,1.3,2.8,2.8,2.8h8.8c1.5,0,2.8-1.3,2.8-2.8v-8.8
			c0-1.5-1.3-2.8-2.8-2.8H74.1z"/>
	</g>
	<g>
		<rect x="97.7" y="112" width="23.6" height="2.4"/>
	</g>
	<g>
		<rect x="96.4" y="125.1" width="16.7" height="2.4"/>
	</g>
	<g>
		<rect x="117.7" y="125.1" width="22.8" height="2.4"/>
	</g>
	<g>
		<rect x="96.4" y="137.9" width="7.5" height="2.4"/>
	</g>
	<g>
		<rect x="109.5" y="137.9" width="24.3" height="2.4"/>
	</g>
	<g>
		<rect x="97.7" y="73.8" width="23.6" height="2.4"/>
	</g>
	<g>
		<rect x="96.4" y="86.9" width="16.7" height="2.4"/>
	</g>
	<g>
		<rect x="117.7" y="86.9" width="22.8" height="2.4"/>
	</g>
	<g>
		<rect x="96.4" y="99.8" width="7.5" height="2.4"/>
	</g>
	<g>
		<rect x="109.5" y="99.8" width="24.3" height="2.4"/>
	</g>
	<g>
		<polygon points="77.4,116.7 71.7,109.6 73.6,108.1 77.2,112.6 85.9,99 87.9,100.3 		"/>
	</g>
</g>
</svg>
