<?xml version="1.0" encoding="utf-8"?>
<!-- Generator: Adobe Illustrator 21.0.0, SVG Export Plug-In . SVG Version: 6.00 Build 0)  -->
<svg version="1.1" id="Capa_1" xmlns="http://www.w3.org/2000/svg" xmlns:xlink="http://www.w3.org/1999/xlink" x="0px" y="0px"
	 viewBox="0 0 200 200" style="enable-background:new 0 0 200 200;" xml:space="preserve">
<g>
	<g>
		<path d="M51.6,164.9c-2.2,0-4.1-0.8-5.9-2.3c-6.8-5.9-4.5-13.3-2.4-16.4l0.3-0.3c0,0,31.8-28.3,39.3-35.1c3.9-3.5,6-7.1,6-10.3
			c0-2-0.8-3.7-2.4-5.2c-4.9-4.5-9.9-10.3-10.4-20c-0.4-8-7.6-14.6-7.6-14.7C59,49.5,44.2,45.4,38,49.4c-2,1.3-2.8,3.8-3.1,5.7
			C34,60.8,36,70.2,42.6,78.5c7.7,9.6,16.3,11.5,23.8,13.2c1.2,0.3,2.4,0.5,3.5,0.8c8.9,2.2,11.6,7.4,11.7,7.6l-3.3,1.7
			c-0.1-0.2-2.1-3.9-9.3-5.7c-1.1-0.3-2.3-0.5-3.4-0.8c-7.7-1.7-17.4-3.8-25.9-14.5c-6.4-8-9.7-18.3-8.4-26.2
			c0.6-3.8,2.3-6.6,4.7-8.2c7.5-4.9,24.5-0.7,35.1,11.8c0.2,0.1,8.2,7.5,8.7,17c0.4,8.3,4.7,13.3,9.2,17.5c2.3,2.1,3.6,4.9,3.5,7.9
			c0,4.3-2.5,8.8-7.2,13c-7.2,6.5-36.6,32.7-39.1,34.9c-0.7,1.1-3.7,6.5,1.9,11.4c1.3,1.1,2.6,1.6,4.1,1.4c3.9-0.4,7.9-4.9,9.2-6.6
			l27.9-33l2.8,2.4l-27.9,32.9c-0.1,0.2-5.4,7.3-11.6,8C52.3,164.9,51.9,164.9,51.6,164.9z"/>
	</g>
	<g>
		<path d="M99.5,101.2l-1.6-3.3c0.2-0.1,5.9-2.9,6.1-10.1l0.1-3.4c0.1-4.6,0.1-4.7,1-8.2l0.2-0.6c1.2-4.9,29.3-30.8,37.9-38.6
			l2.5,2.7c-17.4,15.8-35.9,33.9-36.8,36.8l-0.1,0.6c-0.8,3.1-0.8,3.1-0.9,7.4l-0.1,3.5C107.4,97.3,99.8,101,99.5,101.2z"/>
	</g>
	<g>
		<rect x="122.6" y="66.7" transform="matrix(0.7108 -0.7034 0.7034 0.7108 -6.5434 121.219)" width="43" height="3.7"/>
	</g>
	<g>
		<rect x="115.3" y="59.4" transform="matrix(0.7105 -0.7037 0.7037 0.7105 -3.4962 114.0083)" width="43" height="3.7"/>
	</g>
	<g>
		<path d="M140.9,164.4c-8.9,0-19.5-12.2-27.5-21.4c-1.3-1.4-2.4-2.8-3.5-4c-9.9-11-15.5-18.9-12.9-24.4c2.1-4.2,10.8-16.5,19.1-17
			c6.4-0.3,11.5-1.7,15.3-3.9c2.6-1.6,22.8-22.2,34.9-34.8l2.6,2.5c-3.2,3.4-31.7,33-35.7,35.4c-4.3,2.6-10,4.1-17,4.4
			c-5.8,0.3-13.7,10-16.1,14.9c-2.1,4.4,8.3,16,12.3,20.4c1.1,1.2,2.3,2.6,3.6,4c7.5,8.6,20.2,23.1,27.1,19.6
			c2.7-1.4,4.2-3.1,4.5-5.1c0.4-2.9-1.6-6.2-3.7-8.1c-3.4-3.2-34.6-31.8-34.6-31.8l2.5-2.7c0,0,31.2,28.7,34.7,31.9
			c2.6,2.4,5.4,6.9,4.8,11.3c-0.3,2.3-1.7,5.5-6.4,7.9C143.7,164.2,142.3,164.4,140.9,164.4z"/>
	</g>
</g>
</svg>
