<?xml version="1.0" encoding="utf-8"?>
<!-- Generator: Adobe Illustrator 21.0.0, SVG Export Plug-In . SVG Version: 6.00 Build 0)  -->
<svg version="1.1" id="Capa_1" xmlns="http://www.w3.org/2000/svg" xmlns:xlink="http://www.w3.org/1999/xlink" x="0px" y="0px"
	 viewBox="0 0 200 200" style="enable-background:new 0 0 200 200;" xml:space="preserve">
<g>
	<g>
		<path d="M150.1,160.7H57.2c-2.9,0-5.3-2.4-5.3-5.3V32.7c0-2.9,2.4-5.3,5.3-5.3h92.8c2.9,0,5.3,2.4,5.3,5.3v122.7
			C155.4,158.3,153,160.7,150.1,160.7z M57.2,29.3c-1.9,0-3.4,1.5-3.4,3.4v122.7c0,1.9,1.5,3.4,3.4,3.4h92.8c1.9,0,3.4-1.5,3.4-3.4
			V32.7c0-1.9-1.5-3.4-3.4-3.4H57.2z"/>
	</g>
	<g>
		<path d="M50.2,153.3c-1,0-2.2-0.2-3.2-0.8c-1.4-0.9-2.2-2.4-2.3-4.4c-0.2-1.9,0.3-3.5,1.5-4.5c2.4-2.1,6.8-1.2,6.9-1.2l-0.4,1.9
			c-1-0.2-3.9-0.5-5.3,0.8c-0.7,0.6-1,1.6-0.9,2.9c0.1,1.4,0.6,2.4,1.5,3c1.7,1.1,4.5,0.1,4.6,0.1l0.6,1.8
			C53.1,152.8,51.8,153.3,50.2,153.3z"/>
	</g>
	<g>
		<path d="M50.2,132.3c-1,0-2.2-0.2-3.2-0.8c-1.4-0.9-2.2-2.4-2.3-4.4c-0.2-1.9,0.3-3.5,1.5-4.5c2.4-2.1,6.8-1.2,6.9-1.2l-0.4,1.9
			c-1-0.2-3.9-0.5-5.3,0.8c-0.7,0.6-1,1.6-0.9,2.9c0.1,1.4,0.6,2.4,1.5,3c1.7,1.1,4.5,0.1,4.6,0.1l0.6,1.8
			C53.1,131.9,51.8,132.3,50.2,132.3z"/>
	</g>
	<g>
		<path d="M50.2,111.4c-1,0-2.2-0.2-3.2-0.8c-1.4-0.9-2.2-2.4-2.3-4.4c-0.2-1.9,0.3-3.5,1.5-4.5c2.4-2.1,6.8-1.2,6.9-1.2l-0.4,1.9
			c-1-0.2-3.9-0.5-5.3,0.8c-0.7,0.6-1,1.6-0.9,2.9c0.1,1.4,0.6,2.4,1.5,3c1.7,1.1,4.5,0.1,4.6,0.1l0.6,1.8
			C53.1,110.9,51.8,111.4,50.2,111.4z"/>
	</g>
	<g>
		<path d="M50.2,90.4c-1,0-2.2-0.2-3.2-0.8c-1.4-0.9-2.2-2.4-2.3-4.4c-0.2-1.9,0.3-3.5,1.5-4.5c2.4-2.1,6.8-1.2,6.9-1.2l-0.4,1.9
			c-1-0.2-3.9-0.5-5.3,0.8c-0.7,0.6-1,1.6-0.9,2.9c0.1,1.4,0.6,2.4,1.5,3c1.7,1.1,4.5,0.1,4.6,0.1l0.6,1.8
			C53.1,90,51.8,90.4,50.2,90.4z"/>
	</g>
	<g>
		<path d="M50.2,69.5c-1,0-2.2-0.2-3.2-0.8c-1.4-0.9-2.2-2.4-2.3-4.4c-0.2-1.9,0.3-3.5,1.5-4.5c2.4-2.1,6.8-1.2,6.9-1.2l-0.4,1.9
			c-1-0.2-3.9-0.5-5.3,0.8c-0.7,0.6-1,1.6-0.9,2.9c0.1,1.4,0.6,2.4,1.5,3c1.7,1.1,4.5,0.1,4.6,0.1l0.6,1.8
			C53.1,69,51.8,69.5,50.2,69.5z"/>
	</g>
	<g>
		<path d="M50.2,48.6c-1,0-2.2-0.2-3.2-0.8c-1.4-0.9-2.2-2.4-2.3-4.4c-0.2-1.9,0.3-3.5,1.5-4.5c2.4-2.1,6.8-1.2,6.9-1.2l-0.4,1.9
			c-1-0.2-3.9-0.5-5.3,0.8c-0.7,0.6-1,1.6-0.9,2.9c0.1,1.4,0.6,2.4,1.5,3c1.7,1.1,4.5,0.1,4.6,0.1l0.6,1.8
			C53.1,48.1,51.8,48.6,50.2,48.6z"/>
	</g>
	<g>
		<path d="M139.5,105.7H68.6l0-1c0.1-17.6,9.1-23.3,9.5-23.5l1,1.6c-0.1,0.1-8.1,5.3-8.6,20.9h67.1c-0.1-3.4-1-15.4-8.9-23.8
			c-5.2-5.6-12.6-8.5-21.8-8.8c-0.2,0-14.4-0.5-20.9,5.3l-1.3-1.4c7.1-6.4,21.6-5.9,22.2-5.8c9.7,0.3,17.5,3.4,23.1,9.4
			c9.8,10.4,9.4,25.4,9.4,26.1L139.5,105.7z"/>
	</g>
	<g>
		<rect x="95.4" y="98.5" width="43" height="1.9"/>
	</g>
	<g>
		<path d="M68.5,115.7c-0.9,0-2.2-0.2-3.3-1c-1.2-0.9-1.9-2.3-2.1-4.1c-0.2-1.7,0.3-3.1,1.2-4.3c1.8-2.2,5-2.4,5.1-2.5l0.2,1.9
			c0,0-2.5,0.2-3.8,1.8c-0.6,0.8-0.9,1.7-0.8,2.9c0.1,1.3,0.6,2.2,1.3,2.8c1.2,0.9,3,0.6,3,0.6l0.2,0l70.9,0.1c0.1,0,4.2-0.5,4.2-4
			c0-3.6-6-4-6-4l0.1-1.9c0.3,0,7.8,0.6,7.8,5.9c0,4.2-3.9,5.7-6,5.9l-70.9-0.1C69.5,115.6,69,115.7,68.5,115.7z"/>
	</g>
	<g>
		<path d="M98.4,70.4c0-0.2-0.4-5.4,2-8c0.9-1,2.2-1.5,3.6-1.5c1.5,0,2.7,0.6,3.7,1.6c2.4,2.6,2.2,7.6,2.2,7.8l-1.9-0.1
			c0,0,0.2-4.4-1.7-6.4c-0.6-0.7-1.4-1-2.3-1c-1,0-1.6,0.3-2.2,0.9c-1.6,1.6-1.6,5.3-1.5,6.5L98.4,70.4z"/>
	</g>
</g>
</svg>
