<?xml version="1.0" encoding="utf-8"?>
<!-- Generator: Adobe Illustrator 21.0.0, SVG Export Plug-In . SVG Version: 6.00 Build 0)  -->
<svg version="1.1" id="Capa_1" xmlns="http://www.w3.org/2000/svg" xmlns:xlink="http://www.w3.org/1999/xlink" x="0px" y="0px"
	 viewBox="0 0 400 400" style="enable-background:new 0 0 400 400;" xml:space="preserve">
<style type="text/css">
	.st0{fill-rule:evenodd;clip-rule:evenodd;fill:#F3A908;}
	.st1{fill-rule:evenodd;clip-rule:evenodd;fill:#FFD575;}
	.st2{fill:#F3A908;}
	.st3{fill-rule:evenodd;clip-rule:evenodd;fill:#3C3C3B;}
	.st4{fill-rule:evenodd;clip-rule:evenodd;fill:#878787;}
	.st5{fill:#3C3C3B;}
</style>
<g>
	<path class="st3" d="M185.6,368.2c89.4,0,162.2-72.9,162.2-162.2c0-89.4-72.9-162.2-162.2-162.2c-89.4,0-162.2,72.9-162.2,162.2
		C23.3,295.3,96.2,368.2,185.6,368.2z"/>
	<path class="st4" d="M185.6,336.7c72,0,130.7-58.7,130.7-130.7c0-72-58.7-130.7-130.7-130.7c-72,0-130.7,58.7-130.7,130.7
		C54.8,277.9,113.6,336.7,185.6,336.7z"/>
	<path class="st5" d="M225.2,204.4c-4.6-5.5-12.6-10.2-23.9-14.1c-2.6-0.9-5.4-1.7-8.3-2.5v-38.5c3.5,1.5,6.3,3.8,8.3,6.8
		c1.7,2.5,2.8,5.5,3.5,8.9l24.9-3.3c-1.7-9.9-5.7-17.7-11.8-23.6c-4.4-4.2-10-7.2-16.6-9.1c-2.6-0.7-5.4-1.3-8.3-1.6v-9.8h-14.3v9.8
		c-2.2,0.2-4.3,0.6-6.4,1c-8.4,1.9-15.3,5.8-20.8,11.7c-6.8,7.3-10.2,16.4-10.2,27.2c0,10.6,3,19.7,9,27.2c5,6.2,12.3,11.1,22,14.6
		c2,0.7,4.1,1.4,6.4,2.1v41.3c-2.3-1.1-4.4-2.6-6.4-4.5c-1.1-1.1-2.2-2.4-3.3-3.8c-2.9-3.8-4.9-8.3-5.9-13.6l-25.7,2.8
		c2,13,6.5,23,13.6,30.1c5.7,5.7,12.9,9.6,21.4,11.6c2,0.5,4.2,0.9,6.4,1.1v18H193v-18.4c2.9-0.4,5.7-1,8.3-1.8
		c8.9-2.5,16.1-6.9,21.7-13.3c7.2-8.1,10.8-18.2,10.8-30.1C233.8,220,230.9,211.2,225.2,204.4z M178.7,183.1
		c-2.5-1.1-4.6-2.3-6.4-3.8c-1.3-1.1-2.3-2.2-3.2-3.5c-2.1-3-3.1-6.2-3.1-9.7c0-3.8,1.1-7.3,3.4-10.5c0.9-1.2,1.8-2.2,2.9-3.1
		c1.8-1.5,3.9-2.7,6.4-3.6V183.1z M205,247c-1.1,1.3-2.3,2.4-3.7,3.4c-2.4,1.7-5.2,2.8-8.3,3.4v-38.4c3.3,0.9,6.1,2.1,8.3,3.5
		c1.8,1.1,3.3,2.4,4.4,3.8c2.6,3.2,3.9,7,3.9,11.4C209.7,239.1,208.1,243.4,205,247z"/>
</g>
</svg>
