<?xml version="1.0" encoding="utf-8"?>
<!-- Generator: Adobe Illustrator 21.0.0, SVG Export Plug-In . SVG Version: 6.00 Build 0)  -->
<svg version="1.1" id="Capa_1" xmlns="http://www.w3.org/2000/svg" xmlns:xlink="http://www.w3.org/1999/xlink" x="0px" y="0px"
	 viewBox="0 0 200 200" style="enable-background:new 0 0 200 200;" xml:space="preserve">
<g>
	<g>
		<path d="M147.7,156.7c-0.4,0-0.7,0-1.1-0.1c-17.1-1.9-43.8-48.3-46.8-53.6l-3.7-6.5l6.7,3.2c23.5,11.3,52.1,27.8,55,42.6
			c0.8,4.1-0.3,7.9-3.2,11.1C152.8,155.7,150.4,156.7,147.7,156.7z M107.8,107.5c9.9,16.2,28.5,43.3,39.3,44.5
			c1.6,0.2,2.9-0.3,4-1.6c1.9-2.2,2.6-4.5,2.1-7.1C151.4,134.2,135,121.3,107.8,107.5z"/>
	</g>
	<g>
		<path d="M70.5,112.6c-20.3,0-36.7-16.8-36.7-37.5s16.5-37.5,36.7-37.5s36.7,16.8,36.7,37.5S90.8,112.6,70.5,112.6z M70.5,42.3
			c-17.7,0-32.1,14.7-32.1,32.8S52.8,108,70.5,108s32.1-14.7,32.1-32.8S88.2,42.3,70.5,42.3z"/>
	</g>
	<g>
		<path d="M88.5,90l-3.4-3.3c5.3-5.4,7.7-10.9,7.1-16.1c-0.9-8.3-9-13.8-9.1-13.8l2.6-3.9c0.4,0.3,10,6.7,11.2,17.2
			C97.6,76.8,94.8,83.5,88.5,90z"/>
	</g>
</g>
</svg>
