<?xml version="1.0" encoding="utf-8"?>
<!-- Generator: Adobe Illustrator 21.0.0, SVG Export Plug-In . SVG Version: 6.00 Build 0)  -->
<svg version="1.1" id="Capa_1" xmlns="http://www.w3.org/2000/svg" xmlns:xlink="http://www.w3.org/1999/xlink" x="0px" y="0px"
	 viewBox="0 0 200 200" style="enable-background:new 0 0 200 200;" xml:space="preserve">
<g>
	<g>
		<path d="M160,162.1H52.8c-6.6,0-12-5.4-12-12V58c0-6.6,5.4-12,12-12H160c6.6,0,12,5.4,12,12v92.2C172,156.7,166.6,162.1,160,162.1
			z M52.8,48.5c-5.2,0-9.5,4.3-9.5,9.5v92.2c0,5.2,4.3,9.5,9.5,9.5H160c5.2,0,9.5-4.3,9.5-9.5V58c0-5.2-4.3-9.5-9.5-9.5H52.8z"/>
	</g>
	<g>
		<rect x="42.1" y="70.7" width="129.8" height="2.5"/>
	</g>
	<g>
		<path d="M148.5,145.6h-5.6c-2.4,0-4.3-1.9-4.3-4.3v-5.6c0-2.4,1.9-4.3,4.3-4.3h5.6c2.4,0,4.3,1.9,4.3,4.3v5.6
			C152.8,143.7,150.9,145.6,148.5,145.6z M142.9,133.9c-1,0-1.8,0.8-1.8,1.8v5.6c0,1,0.8,1.8,1.8,1.8h5.6c1,0,1.8-0.8,1.8-1.8v-5.6
			c0-1-0.8-1.8-1.8-1.8H142.9z"/>
	</g>
	<g>
		<path d="M121.5,145.6h-5.6c-2.4,0-4.3-1.9-4.3-4.3v-5.6c0-2.4,1.9-4.3,4.3-4.3h5.6c2.4,0,4.3,1.9,4.3,4.3v5.6
			C125.8,143.7,123.9,145.6,121.5,145.6z M115.9,133.9c-1,0-1.8,0.8-1.8,1.8v5.6c0,1,0.8,1.8,1.8,1.8h5.6c1,0,1.8-0.8,1.8-1.8v-5.6
			c0-1-0.8-1.8-1.8-1.8H115.9z"/>
	</g>
	<g>
		<path d="M97,145.6h-5.6c-2.4,0-4.3-1.9-4.3-4.3v-5.6c0-2.4,1.9-4.3,4.3-4.3H97c2.4,0,4.3,1.9,4.3,4.3v5.6
			C101.3,143.7,99.3,145.6,97,145.6z M91.4,133.9c-1,0-1.8,0.8-1.8,1.8v5.6c0,1,0.8,1.8,1.8,1.8H97c1,0,1.8-0.8,1.8-1.8v-5.6
			c0-1-0.8-1.8-1.8-1.8H91.4z"/>
	</g>
	<g>
		<path d="M70,145.6h-5.6c-2.4,0-4.3-1.9-4.3-4.3v-5.6c0-2.4,1.9-4.3,4.3-4.3H70c2.4,0,4.3,1.9,4.3,4.3v5.6
			C74.3,143.7,72.3,145.6,70,145.6z M64.4,133.9c-1,0-1.8,0.8-1.8,1.8v5.6c0,1,0.8,1.8,1.8,1.8H70c1,0,1.8-0.8,1.8-1.8v-5.6
			c0-1-0.8-1.8-1.8-1.8H64.4z"/>
	</g>
	<g>
		<path d="M148.5,123.6h-5.6c-2.4,0-4.3-1.9-4.3-4.3v-5.6c0-2.4,1.9-4.3,4.3-4.3h5.6c2.4,0,4.3,1.9,4.3,4.3v5.6
			C152.8,121.6,150.9,123.6,148.5,123.6z M142.9,111.8c-1,0-1.8,0.8-1.8,1.8v5.6c0,1,0.8,1.8,1.8,1.8h5.6c1,0,1.8-0.8,1.8-1.8v-5.6
			c0-1-0.8-1.8-1.8-1.8H142.9z"/>
	</g>
	<g>
		<path d="M121.5,123.6h-5.6c-2.4,0-4.3-1.9-4.3-4.3v-5.6c0-2.4,1.9-4.3,4.3-4.3h5.6c2.4,0,4.3,1.9,4.3,4.3v5.6
			C125.8,121.6,123.9,123.6,121.5,123.6z M115.9,111.8c-1,0-1.8,0.8-1.8,1.8v5.6c0,1,0.8,1.8,1.8,1.8h5.6c1,0,1.8-0.8,1.8-1.8v-5.6
			c0-1-0.8-1.8-1.8-1.8H115.9z"/>
	</g>
	<g>
		<path d="M97,123.6h-5.6c-2.4,0-4.3-1.9-4.3-4.3v-5.6c0-2.4,1.9-4.3,4.3-4.3H97c2.4,0,4.3,1.9,4.3,4.3v5.6
			C101.3,121.6,99.3,123.6,97,123.6z M91.4,111.8c-1,0-1.8,0.8-1.8,1.8v5.6c0,1,0.8,1.8,1.8,1.8H97c1,0,1.8-0.8,1.8-1.8v-5.6
			c0-1-0.8-1.8-1.8-1.8H91.4z"/>
	</g>
	<g>
		<path d="M70,123.6h-5.6c-2.4,0-4.3-1.9-4.3-4.3v-5.6c0-2.4,1.9-4.3,4.3-4.3H70c2.4,0,4.3,1.9,4.3,4.3v5.6
			C74.3,121.6,72.3,123.6,70,123.6z M64.4,111.8c-1,0-1.8,0.8-1.8,1.8v5.6c0,1,0.8,1.8,1.8,1.8H70c1,0,1.8-0.8,1.8-1.8v-5.6
			c0-1-0.8-1.8-1.8-1.8H64.4z"/>
	</g>
	<g>
		<path d="M148.5,101.5h-5.6c-2.4,0-4.3-1.9-4.3-4.3v-5.6c0-2.4,1.9-4.3,4.3-4.3h5.6c2.4,0,4.3,1.9,4.3,4.3v5.6
			C152.8,99.5,150.9,101.5,148.5,101.5z M142.9,89.7c-1,0-1.8,0.8-1.8,1.8v5.6c0,1,0.8,1.8,1.8,1.8h5.6c1,0,1.8-0.8,1.8-1.8v-5.6
			c0-1-0.8-1.8-1.8-1.8H142.9z"/>
	</g>
	<g>
		<path d="M121.5,101.5h-5.6c-2.4,0-4.3-1.9-4.3-4.3v-5.6c0-2.4,1.9-4.3,4.3-4.3h5.6c2.4,0,4.3,1.9,4.3,4.3v5.6
			C125.8,99.5,123.9,101.5,121.5,101.5z M115.9,89.7c-1,0-1.8,0.8-1.8,1.8v5.6c0,1,0.8,1.8,1.8,1.8h5.6c1,0,1.8-0.8,1.8-1.8v-5.6
			c0-1-0.8-1.8-1.8-1.8H115.9z"/>
	</g>
	<g>
		<path d="M97,101.5h-5.6c-2.4,0-4.3-1.9-4.3-4.3v-5.6c0-2.4,1.9-4.3,4.3-4.3H97c2.4,0,4.3,1.9,4.3,4.3v5.6
			C101.3,99.5,99.3,101.5,97,101.5z M91.4,89.7c-1,0-1.8,0.8-1.8,1.8v5.6c0,1,0.8,1.8,1.8,1.8H97c1,0,1.8-0.8,1.8-1.8v-5.6
			c0-1-0.8-1.8-1.8-1.8H91.4z"/>
	</g>
	<g>
		<path d="M70,101.5h-5.6c-2.4,0-4.3-1.9-4.3-4.3v-5.6c0-2.4,1.9-4.3,4.3-4.3H70c2.4,0,4.3,1.9,4.3,4.3v5.6
			C74.3,99.5,72.3,101.5,70,101.5z M64.4,89.7c-1,0-1.8,0.8-1.8,1.8v5.6c0,1,0.8,1.8,1.8,1.8H70c1,0,1.8-0.8,1.8-1.8v-5.6
			c0-1-0.8-1.8-1.8-1.8H64.4z"/>
	</g>
</g>
</svg>
