<?xml version="1.0" encoding="utf-8"?>
<!-- Generator: Adobe Illustrator 21.0.0, SVG Export Plug-In . SVG Version: 6.00 Build 0)  -->
<svg version="1.1" id="Capa_1" xmlns="http://www.w3.org/2000/svg" xmlns:xlink="http://www.w3.org/1999/xlink" x="0px" y="0px"
	 viewBox="0 0 200 200" style="enable-background:new 0 0 200 200;" xml:space="preserve">
<g>
	<g>
		<polygon points="144.5,39.4 85.8,39.4 85.8,26.5 88.6,26.5 88.6,36.6 141.7,36.6 141.7,26.5 144.5,26.5 		"/>
	</g>
	<g>
		<g>
			<path d="M78.3,173.3c-8.3-1.6-10.6-8.2-10.8-11.4c-0.1-4.9-2.1-118.2,0-127c2.3-9.7,8.4-9.8,8.7-9.8H153c5.5-0.7,8.2,5.5,8.9,8.8
				l-0.2,124.8c0.6,4.5-0.1,8.2-2.3,10.8c-2.8,3.4-6.8,3.8-7,3.8L78.3,173.3z M76.2,27.9c-0.1,0-4.2,0.2-6,7.6
				c-1.6,6.7-0.7,85.5,0,126.3c0,0.3,0.5,7.2,8.3,8.7l73.8,0c0,0,3-0.3,5-2.8c1.6-2,2.2-5,1.7-8.9l0.2-124.7c0,0,0,0,0,0
				c0,0-1.4-6.8-6-6.3L76.2,27.9z"/>
		</g>
		<g>
			<rect x="68.6" y="140.5" width="91.8" height="2.8"/>
		</g>
		<g>
			<path d="M126.8,163.5h-26c-4.3,0-7.8-3.5-7.8-7.8c0-4.3,3.5-7.8,7.8-7.8h26c4.3,0,7.8,3.5,7.8,7.8
				C134.6,160,131.1,163.5,126.8,163.5z M100.9,150.7c-2.7,0-5,2.2-5,5c0,2.7,2.2,5,5,5h26c2.7,0,5-2.2,5-5c0-2.7-2.2-5-5-5H100.9z"
				/>
		</g>
		<g>
			<g>
				<path d="M101,73.7H86.6V59.2H101V73.7z M88.8,71.4h10v-10h-10V71.4z"/>
			</g>
			<g>
				<rect x="91" y="63.7" width="5.5" height="5.5"/>
			</g>
			<g>
				<path d="M131.4,59.2h14.5v14.5h-14.5V59.2z M143.7,61.4h-10v10h10V61.4z"/>
			</g>
			<g>
				<rect x="135.9" y="63.7" width="5.5" height="5.5"/>
			</g>
			<g>
				<path d="M101,118.5H86.6V104H101V118.5z M88.8,116.3h10v-10h-10V116.3z"/>
			</g>
			<g>
				<rect x="91" y="108.5" width="5.5" height="5.5"/>
			</g>
			<g>
				<rect x="107.9" y="59.2" width="2.4" height="2.4"/>
			</g>
			<g>
				<rect x="112.7" y="59.2" width="2.4" height="2.4"/>
			</g>
			<g>
				<rect x="115" y="59.2" width="2.4" height="2.4"/>
			</g>
			<g>
				<rect x="119.8" y="59.2" width="2.4" height="2.4"/>
			</g>
			<g>
				<rect x="122.1" y="59.2" width="2.4" height="2.4"/>
			</g>
			<g>
				<rect x="103.2" y="61.6" width="2.4" height="2.4"/>
			</g>
			<g>
				<rect x="110.3" y="61.6" width="2.4" height="2.4"/>
			</g>
			<g>
				<rect x="112.7" y="61.6" width="2.4" height="2.4"/>
			</g>
			<g>
				<rect x="119.8" y="61.6" width="2.4" height="2.4"/>
			</g>
			<g>
				<rect x="122.1" y="61.6" width="2.4" height="2.4"/>
			</g>
			<g>
				<rect x="126.9" y="61.6" width="2.4" height="2.4"/>
			</g>
			<g>
				<rect x="105.5" y="63.9" width="2.4" height="2.4"/>
			</g>
			<g>
				<rect x="107.9" y="63.9" width="2.4" height="2.4"/>
			</g>
			<g>
				<rect x="110.3" y="63.9" width="2.4" height="2.4"/>
			</g>
			<g>
				<rect x="112.7" y="63.9" width="2.4" height="2.4"/>
			</g>
			<g>
				<rect x="117.4" y="63.9" width="2.4" height="2.4"/>
			</g>
			<g>
				<rect x="119.8" y="63.9" width="2.4" height="2.4"/>
			</g>
			<g>
				<rect x="122.1" y="63.9" width="2.4" height="2.4"/>
			</g>
			<g>
				<rect x="124.5" y="63.9" width="2.4" height="2.4"/>
			</g>
			<g>
				<rect x="105.5" y="66.3" width="2.4" height="2.4"/>
			</g>
			<g>
				<rect x="107.9" y="66.3" width="2.4" height="2.4"/>
			</g>
			<g>
				<rect x="110.3" y="66.3" width="2.4" height="2.4"/>
			</g>
			<g>
				<rect x="115" y="66.3" width="2.4" height="2.4"/>
			</g>
			<g>
				<rect x="117.4" y="66.3" width="2.4" height="2.4"/>
			</g>
			<g>
				<rect x="124.5" y="66.3" width="2.4" height="2.4"/>
			</g>
			<g>
				<rect x="107.9" y="68.7" width="2.4" height="2.4"/>
			</g>
			<g>
				<rect x="110.3" y="68.7" width="2.4" height="2.4"/>
			</g>
			<g>
				<rect x="112.7" y="68.7" width="2.4" height="2.4"/>
			</g>
			<g>
				<rect x="115" y="71.1" width="2.4" height="2.4"/>
			</g>
			<g>
				<rect x="117.4" y="68.7" width="2.4" height="2.4"/>
			</g>
			<g>
				<rect x="122.1" y="68.7" width="2.4" height="2.4"/>
			</g>
			<g>
				<rect x="124.5" y="68.7" width="2.4" height="2.4"/>
			</g>
			<g>
				<rect x="105.5" y="71.1" width="2.4" height="2.4"/>
			</g>
			<g>
				<rect x="107.9" y="71.1" width="2.4" height="2.4"/>
			</g>
			<g>
				<rect x="122.1" y="71.1" width="2.4" height="2.4"/>
			</g>
			<g>
				<rect x="124.5" y="71.1" width="2.4" height="2.4"/>
			</g>
			<g>
				<rect x="105.5" y="73.4" width="2.4" height="2.4"/>
			</g>
			<g>
				<rect x="103.2" y="59.2" width="2.4" height="2.4"/>
			</g>
			<g>
				<rect x="103.2" y="63.9" width="2.4" height="2.4"/>
			</g>
			<g>
				<rect x="103.2" y="68.7" width="2.4" height="2.4"/>
			</g>
			<g>
				<rect x="103.2" y="73.4" width="2.4" height="2.4"/>
			</g>
			<g>
				<rect x="107.9" y="73.4" width="2.4" height="2.4"/>
			</g>
			<g>
				<rect x="112.7" y="73.4" width="2.4" height="2.4"/>
			</g>
			<g>
				<rect x="115" y="73.4" width="2.4" height="2.4"/>
			</g>
			<g>
				<rect x="117.4" y="73.4" width="2.4" height="2.4"/>
			</g>
			<g>
				<rect x="119.8" y="73.4" width="2.4" height="2.4"/>
			</g>
			<g>
				<rect x="122.1" y="73.4" width="2.4" height="2.4"/>
			</g>
			<g>
				<rect x="124.5" y="73.4" width="2.4" height="2.4"/>
			</g>
			<g>
				<rect x="105.5" y="75.8" width="2.4" height="2.4"/>
			</g>
			<g>
				<rect x="107.9" y="75.8" width="2.4" height="2.4"/>
			</g>
			<g>
				<rect x="110.3" y="75.8" width="2.4" height="2.4"/>
			</g>
			<g>
				<rect x="117.4" y="75.8" width="2.4" height="2.4"/>
			</g>
			<g>
				<rect x="122.1" y="75.8" width="2.4" height="2.4"/>
			</g>
			<g>
				<rect x="124.5" y="75.8" width="2.4" height="2.4"/>
			</g>
			<g>
				<rect x="126.9" y="59.2" width="2.4" height="2.4"/>
			</g>
			<g>
				<rect x="126.9" y="63.9" width="2.4" height="2.4"/>
			</g>
			<g>
				<rect x="126.9" y="68.7" width="2.4" height="2.4"/>
			</g>
			<g>
				<rect x="126.9" y="75.8" width="2.4" height="2.4"/>
			</g>
			<g>
				<rect x="105.5" y="78.2" width="2.4" height="2.4"/>
			</g>
			<g>
				<rect x="117.4" y="78.2" width="2.4" height="2.4"/>
			</g>
			<g>
				<rect x="105.5" y="80.6" width="2.4" height="2.4"/>
			</g>
			<g>
				<rect x="112.7" y="80.6" width="2.4" height="2.4"/>
			</g>
			<g>
				<rect x="115" y="75.8" width="2.4" height="2.4"/>
			</g>
			<g>
				<rect x="117.4" y="80.6" width="2.4" height="2.4"/>
			</g>
			<g>
				<rect x="119.8" y="80.6" width="2.4" height="2.4"/>
			</g>
			<g>
				<rect x="122.1" y="80.6" width="2.4" height="2.4"/>
			</g>
			<g>
				<rect x="105.5" y="82.9" width="2.4" height="2.4"/>
			</g>
			<g>
				<rect x="112.7" y="82.9" width="2.4" height="2.4"/>
			</g>
			<g>
				<rect x="117.4" y="82.9" width="2.4" height="2.4"/>
			</g>
			<g>
				<rect x="119.8" y="82.9" width="2.4" height="2.4"/>
			</g>
			<g>
				<rect x="122.1" y="82.9" width="2.4" height="2.4"/>
			</g>
			<g>
				<rect x="115" y="85.3" width="2.4" height="2.4"/>
			</g>
			<g>
				<rect x="117.4" y="85.3" width="2.4" height="2.4"/>
			</g>
			<g>
				<rect x="119.8" y="85.3" width="2.4" height="2.4"/>
			</g>
			<g>
				<rect x="122.1" y="85.3" width="2.4" height="2.4"/>
			</g>
			<g>
				<rect x="105.5" y="87.7" width="2.4" height="2.4"/>
			</g>
			<g>
				<rect x="107.9" y="87.7" width="2.4" height="2.4"/>
			</g>
			<g>
				<rect x="110.3" y="87.7" width="2.4" height="2.4"/>
			</g>
			<g>
				<rect x="112.7" y="87.7" width="2.4" height="2.4"/>
			</g>
			<g>
				<rect x="115" y="87.7" width="2.4" height="2.4"/>
			</g>
			<g>
				<rect x="117.4" y="87.7" width="2.4" height="2.4"/>
			</g>
			<g>
				<rect x="119.8" y="87.7" width="2.4" height="2.4"/>
			</g>
			<g>
				<rect x="124.5" y="87.7" width="2.4" height="2.4"/>
			</g>
			<g>
				<rect x="105.5" y="90" width="2.4" height="2.4"/>
			</g>
			<g>
				<rect x="110.3" y="90" width="2.4" height="2.4"/>
			</g>
			<g>
				<rect x="119.8" y="90" width="2.4" height="2.4"/>
			</g>
			<g>
				<rect x="122.1" y="90" width="2.4" height="2.4"/>
			</g>
			<g>
				<rect x="124.5" y="90" width="2.4" height="2.4"/>
			</g>
			<g>
				<rect x="107.9" y="92.4" width="2.4" height="2.4"/>
			</g>
			<g>
				<rect x="112.7" y="92.4" width="2.4" height="2.4"/>
			</g>
			<g>
				<rect x="119.8" y="92.4" width="2.4" height="2.4"/>
			</g>
			<g>
				<rect x="122.1" y="92.4" width="2.4" height="2.4"/>
			</g>
			<g>
				<rect x="124.5" y="92.4" width="2.4" height="2.4"/>
			</g>
			<g>
				<rect x="105.5" y="94.8" width="2.4" height="2.4"/>
			</g>
			<g>
				<rect x="110.3" y="94.8" width="2.4" height="2.4"/>
			</g>
			<g>
				<rect x="122.1" y="94.8" width="2.4" height="2.4"/>
			</g>
			<g>
				<rect x="105.5" y="97.2" width="2.4" height="2.4"/>
			</g>
			<g>
				<rect x="107.9" y="97.2" width="2.4" height="2.4"/>
			</g>
			<g>
				<rect x="110.3" y="97.2" width="2.4" height="2.4"/>
			</g>
			<g>
				<rect x="115" y="97.2" width="2.4" height="2.4"/>
			</g>
			<g>
				<rect x="117.4" y="97.2" width="2.4" height="2.4"/>
			</g>
			<g>
				<rect x="91.3" y="78.2" width="2.4" height="2.4"/>
			</g>
			<g>
				<rect x="93.7" y="78.2" width="2.4" height="2.4"/>
			</g>
			<g>
				<rect x="96.1" y="78.2" width="2.4" height="2.4"/>
			</g>
			<g>
				<rect x="98.4" y="78.2" width="2.4" height="2.4"/>
			</g>
			<g>
				<rect x="100.8" y="78.2" width="2.4" height="2.4"/>
			</g>
			<g>
				<rect x="103.2" y="78.2" width="2.4" height="2.4"/>
			</g>
			<g>
				<rect x="93.7" y="80.6" width="2.4" height="2.4"/>
			</g>
			<g>
				<rect x="96.1" y="80.6" width="2.4" height="2.4"/>
			</g>
			<g>
				<rect x="98.4" y="80.6" width="2.4" height="2.4"/>
			</g>
			<g>
				<rect x="100.8" y="80.6" width="2.4" height="2.4"/>
			</g>
			<g>
				<rect x="103.2" y="80.6" width="2.4" height="2.4"/>
			</g>
			<g>
				<rect x="91.3" y="82.9" width="2.4" height="2.4"/>
			</g>
			<g>
				<rect x="98.4" y="82.9" width="2.4" height="2.4"/>
			</g>
			<g>
				<rect x="100.8" y="82.9" width="2.4" height="2.4"/>
			</g>
			<g>
				<rect x="103.2" y="82.9" width="2.4" height="2.4"/>
			</g>
			<g>
				<rect x="91.3" y="85.3" width="2.4" height="2.4"/>
			</g>
			<g>
				<rect x="93.7" y="85.3" width="2.4" height="2.4"/>
			</g>
			<g>
				<rect x="96.1" y="85.3" width="2.4" height="2.4"/>
			</g>
			<g>
				<rect x="93.7" y="87.7" width="2.4" height="2.4"/>
			</g>
			<g>
				<rect x="96.1" y="87.7" width="2.4" height="2.4"/>
			</g>
			<g>
				<rect x="98.4" y="87.7" width="2.4" height="2.4"/>
			</g>
			<g>
				<rect x="100.8" y="87.7" width="2.4" height="2.4"/>
			</g>
			<g>
				<rect x="103.2" y="87.7" width="2.4" height="2.4"/>
			</g>
			<g>
				<rect x="91.3" y="90" width="2.4" height="2.4"/>
			</g>
			<g>
				<rect x="96.1" y="90" width="2.4" height="2.4"/>
			</g>
			<g>
				<rect x="98.4" y="90" width="2.4" height="2.4"/>
			</g>
			<g>
				<rect x="91.3" y="92.4" width="2.4" height="2.4"/>
			</g>
			<g>
				<rect x="96.1" y="92.4" width="2.4" height="2.4"/>
			</g>
			<g>
				<rect x="100.8" y="92.4" width="2.4" height="2.4"/>
			</g>
			<g>
				<rect x="103.2" y="92.4" width="2.4" height="2.4"/>
			</g>
			<g>
				<rect x="91.3" y="94.8" width="2.4" height="2.4"/>
			</g>
			<g>
				<rect x="93.7" y="94.8" width="2.4" height="2.4"/>
			</g>
			<g>
				<rect x="98.4" y="94.8" width="2.4" height="2.4"/>
			</g>
			<g>
				<rect x="100.8" y="94.8" width="2.4" height="2.4"/>
			</g>
			<g>
				<rect x="91.3" y="97.2" width="2.4" height="2.4"/>
			</g>
			<g>
				<rect x="93.7" y="97.2" width="2.4" height="2.4"/>
			</g>
			<g>
				<rect x="86.6" y="78.2" width="2.4" height="2.4"/>
			</g>
			<g>
				<rect x="88.9" y="78.2" width="2.4" height="2.4"/>
			</g>
			<g>
				<rect x="91.3" y="75.8" width="2.4" height="2.4"/>
			</g>
			<g>
				<rect x="96.1" y="75.8" width="2.4" height="2.4"/>
			</g>
			<g>
				<rect x="103.2" y="75.8" width="2.4" height="2.4"/>
			</g>
			<g>
				<rect x="86.6" y="75.8" width="2.4" height="2.4"/>
			</g>
			<g>
				<rect x="86.6" y="80.6" width="2.4" height="2.4"/>
			</g>
			<g>
				<rect x="88.9" y="82.9" width="2.4" height="2.4"/>
			</g>
			<g>
				<rect x="86.6" y="85.3" width="2.4" height="2.4"/>
			</g>
			<g>
				<rect x="88.9" y="85.3" width="2.4" height="2.4"/>
			</g>
			<g>
				<rect x="86.6" y="87.7" width="2.4" height="2.4"/>
			</g>
			<g>
				<rect x="86.6" y="94.8" width="2.4" height="2.4"/>
			</g>
			<g>
				<rect x="88.9" y="94.8" width="2.4" height="2.4"/>
			</g>
			<g>
				<rect x="86.6" y="97.2" width="2.4" height="2.4"/>
			</g>
			<g>
				<rect x="88.9" y="97.2" width="2.4" height="2.4"/>
			</g>
			<g>
				<rect x="96.1" y="97.2" width="2.4" height="2.4"/>
			</g>
			<g>
				<rect x="98.4" y="97.2" width="2.4" height="2.4"/>
			</g>
			<g>
				<rect x="100.8" y="97.2" width="2.4" height="2.4"/>
			</g>
			<g>
				<rect x="103.2" y="97.2" width="2.4" height="2.4"/>
			</g>
			<g>
				<rect x="93.7" y="99.5" width="2.4" height="2.4"/>
			</g>
			<g>
				<rect x="86.6" y="99.5" width="2.4" height="2.4"/>
			</g>
			<g>
				<rect x="96.1" y="99.5" width="2.4" height="2.4"/>
			</g>
			<g>
				<rect x="103.2" y="99.5" width="2.4" height="2.4"/>
			</g>
			<g>
				<rect x="122.1" y="97.2" width="2.4" height="2.4"/>
			</g>
			<g>
				<rect x="126.9" y="78.2" width="2.4" height="2.4"/>
			</g>
			<g>
				<rect x="129.3" y="78.2" width="2.4" height="2.4"/>
			</g>
			<g>
				<rect x="131.6" y="78.2" width="2.4" height="2.4"/>
			</g>
			<g>
				<rect x="134" y="78.2" width="2.4" height="2.4"/>
			</g>
			<g>
				<rect x="136.4" y="78.2" width="2.4" height="2.4"/>
			</g>
			<g>
				<rect x="138.8" y="78.2" width="2.4" height="2.4"/>
			</g>
			<g>
				<rect x="126.9" y="80.6" width="2.4" height="2.4"/>
			</g>
			<g>
				<rect x="129.3" y="80.6" width="2.4" height="2.4"/>
			</g>
			<g>
				<rect x="131.6" y="80.6" width="2.4" height="2.4"/>
			</g>
			<g>
				<rect x="126.9" y="82.9" width="2.4" height="2.4"/>
			</g>
			<g>
				<rect x="131.6" y="82.9" width="2.4" height="2.4"/>
			</g>
			<g>
				<rect x="129.3" y="85.3" width="2.4" height="2.4"/>
			</g>
			<g>
				<rect x="131.6" y="85.3" width="2.4" height="2.4"/>
			</g>
			<g>
				<rect x="136.4" y="85.3" width="2.4" height="2.4"/>
			</g>
			<g>
				<rect x="138.8" y="85.3" width="2.4" height="2.4"/>
			</g>
			<g>
				<rect x="129.3" y="87.7" width="2.4" height="2.4"/>
			</g>
			<g>
				<rect x="131.6" y="87.7" width="2.4" height="2.4"/>
			</g>
			<g>
				<rect x="138.8" y="87.7" width="2.4" height="2.4"/>
			</g>
			<g>
				<rect x="129.3" y="90" width="2.4" height="2.4"/>
			</g>
			<g>
				<rect x="138.8" y="90" width="2.4" height="2.4"/>
			</g>
			<g>
				<rect x="129.3" y="92.4" width="2.4" height="2.4"/>
			</g>
			<g>
				<rect x="131.6" y="92.4" width="2.4" height="2.4"/>
			</g>
			<g>
				<rect x="134" y="92.4" width="2.4" height="2.4"/>
			</g>
			<g>
				<rect x="136.4" y="92.4" width="2.4" height="2.4"/>
			</g>
			<g>
				<rect x="138.8" y="92.4" width="2.4" height="2.4"/>
			</g>
			<g>
				<rect x="134" y="94.8" width="2.4" height="2.4"/>
			</g>
			<g>
				<rect x="136.4" y="94.8" width="2.4" height="2.4"/>
			</g>
			<g>
				<rect x="126.9" y="97.2" width="2.4" height="2.4"/>
			</g>
			<g>
				<rect x="129.3" y="97.2" width="2.4" height="2.4"/>
			</g>
			<g>
				<rect x="141.1" y="78.2" width="2.4" height="2.4"/>
			</g>
			<g>
				<rect x="143.5" y="78.2" width="2.4" height="2.4"/>
			</g>
			<g>
				<rect x="131.6" y="75.8" width="2.4" height="2.4"/>
			</g>
			<g>
				<rect x="138.8" y="75.8" width="2.4" height="2.4"/>
			</g>
			<g>
				<rect x="143.5" y="75.8" width="2.4" height="2.4"/>
			</g>
			<g>
				<rect x="141.1" y="85.3" width="2.4" height="2.4"/>
			</g>
			<g>
				<rect x="143.5" y="85.3" width="2.4" height="2.4"/>
			</g>
			<g>
				<rect x="143.5" y="90" width="2.4" height="2.4"/>
			</g>
			<g>
				<rect x="143.5" y="92.4" width="2.4" height="2.4"/>
			</g>
			<g>
				<rect x="143.5" y="94.8" width="2.4" height="2.4"/>
			</g>
			<g>
				<rect x="141.1" y="97.2" width="2.4" height="2.4"/>
			</g>
			<g>
				<rect x="143.5" y="97.2" width="2.4" height="2.4"/>
			</g>
			<g>
				<rect x="112.7" y="99.5" width="2.4" height="2.4"/>
			</g>
			<g>
				<rect x="115" y="99.5" width="2.4" height="2.4"/>
			</g>
			<g>
				<rect x="117.4" y="99.5" width="2.4" height="2.4"/>
			</g>
			<g>
				<rect x="119.8" y="99.5" width="2.4" height="2.4"/>
			</g>
			<g>
				<rect x="122.1" y="99.5" width="2.4" height="2.4"/>
			</g>
			<g>
				<rect x="105.5" y="101.9" width="2.4" height="2.4"/>
			</g>
			<g>
				<rect x="107.9" y="101.9" width="2.4" height="2.4"/>
			</g>
			<g>
				<rect x="119.8" y="101.9" width="2.4" height="2.4"/>
			</g>
			<g>
				<rect x="122.1" y="101.9" width="2.4" height="2.4"/>
			</g>
			<g>
				<rect x="105.5" y="104.3" width="2.4" height="2.4"/>
			</g>
			<g>
				<rect x="107.9" y="104.3" width="2.4" height="2.4"/>
			</g>
			<g>
				<rect x="115" y="104.3" width="2.4" height="2.4"/>
			</g>
			<g>
				<rect x="117.4" y="104.3" width="2.4" height="2.4"/>
			</g>
			<g>
				<rect x="122.1" y="104.3" width="2.4" height="2.4"/>
			</g>
			<g>
				<rect x="105.5" y="106.6" width="2.4" height="2.4"/>
			</g>
			<g>
				<rect x="107.9" y="106.6" width="2.4" height="2.4"/>
			</g>
			<g>
				<rect x="112.7" y="106.6" width="2.4" height="2.4"/>
			</g>
			<g>
				<rect x="115" y="106.6" width="2.4" height="2.4"/>
			</g>
			<g>
				<rect x="117.4" y="106.6" width="2.4" height="2.4"/>
			</g>
			<g>
				<rect x="119.8" y="106.6" width="2.4" height="2.4"/>
			</g>
			<g>
				<rect x="105.5" y="109" width="2.4" height="2.4"/>
			</g>
			<g>
				<rect x="107.9" y="109" width="2.4" height="2.4"/>
			</g>
			<g>
				<rect x="112.7" y="109" width="2.4" height="2.4"/>
			</g>
			<g>
				<rect x="115" y="109" width="2.4" height="2.4"/>
			</g>
			<g>
				<rect x="119.8" y="109" width="2.4" height="2.4"/>
			</g>
			<g>
				<rect x="124.5" y="106.6" width="2.4" height="2.4"/>
			</g>
			<g>
				<rect x="105.5" y="111.4" width="2.4" height="2.4"/>
			</g>
			<g>
				<rect x="107.9" y="111.4" width="2.4" height="2.4"/>
			</g>
			<g>
				<rect x="115" y="111.4" width="2.4" height="2.4"/>
			</g>
			<g>
				<rect x="119.8" y="111.4" width="2.4" height="2.4"/>
			</g>
			<g>
				<rect x="124.5" y="111.4" width="2.4" height="2.4"/>
			</g>
			<g>
				<rect x="103.2" y="113.8" width="2.4" height="2.4"/>
			</g>
			<g>
				<rect x="107.9" y="113.8" width="2.4" height="2.4"/>
			</g>
			<g>
				<rect x="110.3" y="113.8" width="2.4" height="2.4"/>
			</g>
			<g>
				<rect x="115" y="113.8" width="2.4" height="2.4"/>
			</g>
			<g>
				<rect x="122.1" y="113.8" width="2.4" height="2.4"/>
			</g>
			<g>
				<rect x="124.5" y="113.8" width="2.4" height="2.4"/>
			</g>
			<g>
				<rect x="134" y="97.2" width="2.4" height="2.4"/>
			</g>
			<g>
				<rect x="136.4" y="99.5" width="2.4" height="2.4"/>
			</g>
			<g>
				<rect x="138.8" y="99.5" width="2.4" height="2.4"/>
			</g>
			<g>
				<rect x="126.9" y="101.9" width="2.4" height="2.4"/>
			</g>
			<g>
				<rect x="129.3" y="101.9" width="2.4" height="2.4"/>
			</g>
			<g>
				<rect x="131.6" y="101.9" width="2.4" height="2.4"/>
			</g>
			<g>
				<rect x="134" y="104.3" width="2.4" height="2.4"/>
			</g>
			<g>
				<rect x="138.8" y="101.9" width="2.4" height="2.4"/>
			</g>
			<g>
				<rect x="126.9" y="104.3" width="2.4" height="2.4"/>
			</g>
			<g>
				<rect x="131.6" y="104.3" width="2.4" height="2.4"/>
			</g>
			<g>
				<rect x="126.9" y="106.6" width="2.4" height="2.4"/>
			</g>
			<g>
				<rect x="129.3" y="106.6" width="2.4" height="2.4"/>
			</g>
			<g>
				<rect x="131.6" y="106.6" width="2.4" height="2.4"/>
			</g>
			<g>
				<rect x="134" y="106.6" width="2.4" height="2.4"/>
			</g>
			<g>
				<rect x="138.8" y="106.6" width="2.4" height="2.4"/>
			</g>
			<g>
				<rect x="129.3" y="109" width="2.4" height="2.4"/>
			</g>
			<g>
				<rect x="134" y="109" width="2.4" height="2.4"/>
			</g>
			<g>
				<rect x="136.4" y="109" width="2.4" height="2.4"/>
			</g>
			<g>
				<rect x="129.3" y="111.4" width="2.4" height="2.4"/>
			</g>
			<g>
				<rect x="138.8" y="111.4" width="2.4" height="2.4"/>
			</g>
			<g>
				<rect x="126.9" y="113.8" width="2.4" height="2.4"/>
			</g>
			<g>
				<rect x="129.3" y="113.8" width="2.4" height="2.4"/>
			</g>
			<g>
				<rect x="138.8" y="113.8" width="2.4" height="2.4"/>
			</g>
			<g>
				<rect x="141.1" y="99.5" width="2.4" height="2.4"/>
			</g>
			<g>
				<rect x="141.1" y="101.9" width="2.4" height="2.4"/>
			</g>
			<g>
				<rect x="141.1" y="104.3" width="2.4" height="2.4"/>
			</g>
			<g>
				<rect x="141.1" y="106.6" width="2.4" height="2.4"/>
			</g>
			<g>
				<rect x="141.1" y="109" width="2.4" height="2.4"/>
			</g>
			<g>
				<rect x="141.1" y="111.4" width="2.4" height="2.4"/>
			</g>
			<g>
				<rect x="141.1" y="113.8" width="2.4" height="2.4"/>
			</g>
			<g>
				<rect x="103.2" y="104.3" width="2.4" height="2.4"/>
			</g>
			<g>
				<rect x="103.2" y="109" width="2.4" height="2.4"/>
			</g>
			<g>
				<rect x="103.2" y="111.4" width="2.4" height="2.4"/>
			</g>
			<g>
				<rect x="103.2" y="116.1" width="2.4" height="2.4"/>
			</g>
			<g>
				<rect x="110.3" y="116.1" width="2.4" height="2.4"/>
			</g>
			<g>
				<rect x="115" y="116.1" width="2.4" height="2.4"/>
			</g>
			<g>
				<rect x="119.8" y="116.1" width="2.4" height="2.4"/>
			</g>
			<g>
				<rect x="124.5" y="116.1" width="2.4" height="2.4"/>
			</g>
			<g>
				<rect x="141.1" y="116.1" width="2.4" height="2.4"/>
			</g>
			<g>
				<rect x="143.5" y="116.1" width="2.4" height="2.4"/>
			</g>
		</g>
		<g>
			<polygon points="155.1,129.4 131.9,129.4 131.9,128 153.7,128 153.7,51.9 131.9,51.9 131.9,50.5 155.1,50.5 			"/>
		</g>
		<g>
			<polygon points="99.4,129.4 76.2,129.4 76.2,50.5 99.4,50.5 99.4,51.9 77.6,51.9 77.6,128 99.4,128 			"/>
		</g>
	</g>
</g>
</svg>
