<?xml version="1.0" encoding="utf-8"?>
<!-- Generator: Adobe Illustrator 21.0.0, SVG Export Plug-In . SVG Version: 6.00 Build 0)  -->
<svg version="1.1" id="Capa_1" xmlns="http://www.w3.org/2000/svg" xmlns:xlink="http://www.w3.org/1999/xlink" x="0px" y="0px"
	 viewBox="0 0 200 200" style="enable-background:new 0 0 200 200;" xml:space="preserve">
<g>
	<g>
		<path d="M117,175l-1.2-1.3c-1.8-2.1-44.6-51.9-45.3-96.9c-0.7-43.6,40.2-49,44.8-49.4l0.7,0v0.7l0.1-0.7l0.1,0
			c4.7,0.5,45.5,5.8,44.8,49.4c-0.7,45-42.4,96.3-42.8,96.8L117,175z M115.5,30.4c-4.2,0.4-42.7,5.5-42,46.4
			c0.7,39.9,36.5,85.2,43.4,93.6c6.6-8.5,40.4-53.8,41-93.6c0.7-40.7-37.3-45.9-42.1-46.4H115.5z"/>
	</g>
	<g>
		<path d="M116.1,111.9c-20.8,0-37.7-16.9-37.7-37.7s16.9-37.7,37.7-37.7s37.7,16.9,37.7,37.7S136.9,111.9,116.1,111.9z M116.1,39.5
			c-19.1,0-34.7,15.6-34.7,34.7S97,109,116.1,109s34.7-15.6,34.7-34.7S135.3,39.5,116.1,39.5z"/>
	</g>
</g>
</svg>
