<?xml version="1.0" encoding="utf-8"?>
<!-- Generator: Adobe Illustrator 21.0.0, SVG Export Plug-In . SVG Version: 6.00 Build 0)  -->
<svg version="1.1" id="Capa_1" xmlns="http://www.w3.org/2000/svg" xmlns:xlink="http://www.w3.org/1999/xlink" x="0px" y="0px"
	 viewBox="0 0 200 200" style="enable-background:new 0 0 200 200;" xml:space="preserve">
<g>
	<g>
		<path d="M101.2,174l-12.5-15.7l-37.9,0c-4.6,0.1-8.2-1.1-11-3.8c-4.5-4.5-4.3-11.3-4.3-11.5V57c0-7,2-12.2,6.1-15.5
			c5.5-4.6,12.8-3.8,14.4-3.5l94.1-0.2c5.7-0.6,10.5,0.7,14,3.7c4.9,4.4,5.1,10.7,5.1,11l-0.9,92c0,3.5-1.1,6.4-3.4,8.5
			c-4,3.9-9.9,3.7-10.6,3.7l-40.3,0.5L101.2,174z M50.7,152.7l40.7,0l9.6,12.1l9.9-13.2l43.2-0.5c1.4,0.1,4.7-0.3,6.6-2.1
			c1.1-1.1,1.6-2.5,1.6-4.5l0.9-92l0,0c0,0-0.2-4.2-3.2-6.9c-2.2-2-5.6-2.7-9.9-2.3l-94.8,0.2l-0.3,0c-0.1,0-6.1-1.1-10.1,2.3
			c-2.6,2.2-4,6-4,11.1v86.1c0,0.1-0.1,4.7,2.7,7.5C45.4,152.1,47.8,152.8,50.7,152.7z"/>
	</g>
	<g>
		<path d="M64.4,155.6l-5.6-0.2c0.3-10.4,6.1-30.2,25.4-30.4c21.7-0.2,37.4,0,37.4,0c0.4,0,20.5,1.9,23.9,27.1L140,153
			c-2.8-20.6-17.9-22.2-18.6-22.3c0,0.1-6.9-0.1-17.7-0.1c-5.6,0-12.2,0-19.5,0.1C65.5,130.9,64.5,154.6,64.4,155.6z"/>
	</g>
	<g>
		<path d="M101.8,122c-15.4,0-28-12.6-28-28s12.6-28,28-28s28,12.6,28,28S117.2,122,101.8,122z M101.8,71.7
			c-12.3,0-22.4,10-22.4,22.4s10,22.4,22.4,22.4s22.4-10,22.4-22.4S114.1,71.7,101.8,71.7z"/>
	</g>
</g>
</svg>
